<?xml version="1.0" encoding="utf-8"?>
<!-- Generator: Adobe Illustrator 27.3.1, SVG Export Plug-In . SVG Version: 6.00 Build 0)  -->
<svg version="1.1" id="Layer_1" xmlns="http://www.w3.org/2000/svg" xmlns:xlink="http://www.w3.org/1999/xlink" x="0px" y="0px"
	 viewBox="0 0 1283.7 853.3" style="enable-background:new 0 0 1283.7 853.3;" xml:space="preserve">
<style type="text/css">
	.st0{fill:#8AE3FF;}
	.st1{fill:#BBC2CC;}
	.st2{fill:#1A2D58;}
	.st3{fill:#D1D3D4;}
	.st4{fill:#808285;}
	.st5{fill:#EDED90;stroke:#EFF0A3;stroke-width:3;stroke-miterlimit:10;}
	.st6{fill:none;stroke:#271D5D;stroke-width:0.75;stroke-miterlimit:10;}
	.st7{fill:#FFFFFF;}
	.st8{fill:#010101;}
	.st9{font-family:'ArialMT';}
	.st10{font-size:4.4897px;}
	.st11{font-size:4.0126px;}
	.st12{font-size:4.0123px;}
	.st13{font-size:3.5335px;}
	.st14{fill:none;stroke:#231F20;stroke-width:2;stroke-miterlimit:10;}
	.st15{fill:#828487;}
	.st16{fill:#231F20;}
	.st17{fill:#FFFFFF;stroke:#000000;stroke-width:2;stroke-miterlimit:10;}
	.st18{font-size:17px;}
	.st19{font-family:'TimesNewRomanPS-BoldMT';}
	.st20{font-size:15.3965px;}
	.st21{font-size:14.5738px;}
	.st22{font-size:15.4px;}
	.st23{fill:#009FB4;}
	.st24{fill:none;stroke:#717375;stroke-width:3;stroke-miterlimit:10;}
	.st25{fill:#717375;}
	.st26{font-size:17.5978px;}
	.st27{font-size:16.9671px;}
	.st28{opacity:0.5;fill:#8AE3FF;enable-background:new    ;}
	.st29{fill:url(#Main_Jet_00000052812411063108147240000011224341802952421540_);}
	.st30{opacity:0;}
	.st31{opacity:0.67;fill:url(#Drop_11_00000135687117280516685880000016717749521014160794_);enable-background:new    ;}
	.st32{opacity:0.67;fill:url(#Drop_10_00000056387103979444125320000018114084979577563025_);enable-background:new    ;}
	.st33{opacity:0.67;fill:url(#Drop_9_00000054250773456291157930000011349518346868525754_);enable-background:new    ;}
	.st34{opacity:0.67;fill:url(#Drop_8_00000008143297654909232630000016809245856266711992_);enable-background:new    ;}
	.st35{opacity:0.67;fill:url(#Drop_7_00000039091908150184548190000013843360088061740984_);enable-background:new    ;}
	.st36{opacity:0.67;fill:url(#Drop_6_00000056415169883793268200000003983226214624752791_);enable-background:new    ;}
	.st37{opacity:0.67;fill:url(#Drop_5_00000101822486825781003460000012673663802255244715_);enable-background:new    ;}
	.st38{opacity:0.67;fill:url(#Drop_4_00000154416201960228524110000003633545885260924076_);enable-background:new    ;}
	.st39{opacity:0.67;fill:url(#Drop_3_00000113318958002396607820000000303088114126416035_);enable-background:new    ;}
	.st40{opacity:0.67;fill:url(#Drop_2_00000110457942781520010100000013023002834148820377_);enable-background:new    ;}
	.st41{opacity:0.67;fill:url(#Drop_1_00000106130327377543059360000017328497444307903659_);enable-background:new    ;}
	.st42{opacity:0.3;}
	.st43{fill:#999899;}
</style>
<g>
	<g>
		
			<image style="overflow:visible;enable-background:new    ;" width="36" height="515" xlink:href="BE12236.png"  transform="matrix(0.8562 0 0 0.8562 982.1879 57.6078)">
		</image>
	</g>
</g>
<rect id="Verturimeter_Water_Left_00000035524620157501483550000011411495042354387355_" x="816.7" y="61.2" class="st0" width="6.2" height="99.1"/>
<g>
	<g>
		
			<image style="overflow:visible;enable-background:new    ;" width="35" height="516" xlink:href="BE1223E.png"  transform="matrix(0.8547 0 0 0.3514 239.3429 60.3922)">
		</image>
	</g>
</g>
<rect id="Mercury_Right" x="894.6" y="160.3" class="st1" width="7" height="36.5"/>
<g id="Mercury_Fixed">
	<g>
		<path class="st1" d="M901.7,195.9c0.1,1,0,5.5-0.1,7.3c-0.1,2.7-0.6,9.3-4.6,16.9c-5.9,11-14,17.3-15.8,18.2
			c-3,1.5-15.7,8-29.3,5.7c-13.4-2.3-19.4-6.6-23.4-12c-10.3-10.7-11.7-25.7-11.7-35.9l6.9,0.3c0,8.4,0.8,19.4,9.2,28.3
			c3.3,3.5,8,9.9,18.9,11.8c11,1.9,22.5-3.7,24.9-4.9c1.4-0.7,8.9-6.2,13.7-15.3c3.4-6.3,3.7-10.4,3.8-12.6c0.1-1.4,0.7-6.9,0.6-7.8
			L901.7,195.9L901.7,195.9z"/>
	</g>
</g>
<rect id="Verturimeter_Water_Right_00000068643826572147975590000011604526973254985363_" x="895" y="62.1" class="st0" width="6.2" height="119.3"/>
<g>
	<g>
		
			<image style="overflow:visible;enable-background:new    ;" width="366" height="510" xlink:href="BE1223F.png"  transform="matrix(8.095858e-02 0 0 8.095858e-02 983.4346 675.6555)">
		</image>
	</g>
</g>
<g>
	<g>
		<g>
			
				<image style="overflow:visible;enable-background:new    ;" width="179" height="509" xlink:href="BE1222C.png"  transform="matrix(0.137 0 0 0.137 1019.6658 551.0873)">
			</image>
		</g>
	</g>
	<g>
		<g>
			
				<image style="overflow:visible;enable-background:new    ;" width="785" height="538" xlink:href="BE1222F.png"  transform="matrix(0.2399 0 0 0.2399 1041.7384 521.4214)">
			</image>
		</g>
	</g>
	<g>
		<g>
			
				<image style="overflow:visible;enable-background:new    ;" width="506" height="134" xlink:href="BE12223.png"  transform="matrix(8.396927e-02 0 0 8.396927e-02 1153.1158 559.4036)">
			</image>
		</g>
	</g>
	<g>
		<g>
			
				<image style="overflow:visible;enable-background:new    ;" width="506" height="127" xlink:href="BE12227.png"  transform="matrix(8.425064e-02 0 0 8.425064e-02 1153.0447 580.123)">
			</image>
		</g>
	</g>
	<g>
		<g>
			
				<image style="overflow:visible;enable-background:new    ;" width="506" height="133" xlink:href="BE12221.png"  transform="matrix(8.401021e-02 0 0 8.401021e-02 1153.1056 600.3298)">
			</image>
		</g>
	</g>
	<g>
		<g>
			
				<image style="overflow:visible;enable-background:new    ;" width="506" height="126" xlink:href="BE12222.png"  transform="matrix(8.428983e-02 0 0 8.428983e-02 1153.0348 621.0499)">
			</image>
		</g>
	</g>
	<g>
		<g>
			
				<image style="overflow:visible;enable-background:new    ;" width="507" height="130" xlink:href="BE12220.png"  transform="matrix(8.354203e-02 0 0 8.354203e-02 1153.1823 539.1556)">
			</image>
		</g>
	</g>
	<g>
		<g>
			
				<image style="overflow:visible;enable-background:new    ;" width="571" height="44" xlink:href="B789EFDE.png"  transform="matrix(0.2413 0 0 0.2413 1067.0256 692.2833)">
			</image>
		</g>
	</g>
	<path class="st2" d="M1204.6,692.4h-137.5c6.9-0.5,33-3.5,46.8-29.7c1.7-3.3,3.4-7.3,4.8-12.1c11.7,0,23.3,0,35,0
		c1.1,4.3,2.4,7.9,3.9,11.1C1170.4,688.8,1198.2,691.9,1204.6,692.4z"/>
	<g>
		<g>
			
				<image style="overflow:visible;enable-background:new    ;" width="424" height="504" xlink:href="B789EFDA.png"  transform="matrix(5.274914e-02 0 0 5.274914e-02 987.097 508.081)">
			</image>
		</g>
	</g>
	<g>
		<g>
			
				<image style="overflow:visible;enable-background:new    ;" width="510" height="264" xlink:href="B789EFC5.png"  transform="matrix(9.424879e-02 0 0 9.424879e-02 974.2465 489.9596)">
			</image>
		</g>
	</g>
	<g>
		<g>
			
				<image style="overflow:visible;enable-background:new    ;" width="424" height="497" xlink:href="B789EFC6.png"  transform="matrix(5.318040e-02 0 0 5.318040e-02 987.0056 634.7756)">
			</image>
		</g>
	</g>
	<g>
		<g>
			
				<image style="overflow:visible;enable-background:new    ;" width="510" height="267" xlink:href="B789EFC4.png"  transform="matrix(9.402199e-02 0 0 9.402199e-02 974.3043 654.1492)">
			</image>
		</g>
	</g>
	<rect x="984.2" y="529.8" class="st3" width="28.1" height="111.4"/>
	<polygon class="st2" points="975.4,620.8 964.8,615 964.8,557 975.4,551.2 	"/>
	<path class="st4" d="M1012.3,641.2L1012.3,641.2V529.8l0,0c5.2,0,9.4,4.2,9.4,9.4v92.7C1021.7,637,1017.5,641.2,1012.3,641.2z"/>
	<path class="st4" d="M984.2,641.2L984.2,641.2c-5.2,0-9.4-4.2-9.4-9.4v-92.7c0-5.2,4.2-9.4,9.4-9.4l0,0V641.2z"/>
</g>
<g>
	<g>
		<g>
			
				<image style="overflow:visible;enable-background:new    ;" width="2862" height="1057" xlink:href="B789EFC8.png"  transform="matrix(0.2401 0 0 0.2401 175.9855 548.2992)">
			</image>
		</g>
	</g>
</g>
<rect id="Mercury_Left" x="816.7" y="160.3" class="st1" width="6.9" height="37"/>
<g>
	<g>
		
			<image style="overflow:visible;enable-background:new    ;" width="238" height="512" xlink:href="B789EFC1.png"  transform="matrix(0.3694 0 0 0.3694 815.4481 56.5045)">
		</image>
	</g>
</g>
<g>
	<g>
		
			<image style="overflow:visible;enable-background:new    ;" width="511" height="108" xlink:href="B789EFD0.png"  transform="matrix(0.276 0 0 0.276 849.728 702.5952)">
		</image>
	</g>
</g>
<g>
	<g>
		
			<image style="overflow:visible;enable-background:new    ;" width="510" height="189" xlink:href="B789EFD6.png"  transform="matrix(0.1588 0 0 0.1588 914.5914 39.7502)">
		</image>
	</g>
</g>
<g>
	<g>
		
			<image style="overflow:visible;enable-background:new    ;" width="512" height="189" xlink:href="B789EFC3.png"  transform="matrix(0.1583 0 0 0.1583 724.7507 39.802)">
		</image>
	</g>
</g>
<g>
	<g>
		
			<image style="overflow:visible;enable-background:new    ;" width="508" height="189" xlink:href="B789EFBB.png"  transform="matrix(0.1594 0 0 0.1594 832.3126 39.6985)">
		</image>
	</g>
</g>
<g>
	<g>
		
			<image style="overflow:visible;enable-background:new    ;" width="505" height="266" xlink:href="B789EFBC.png"  transform="matrix(6.115601e-02 0 0 6.115601e-02 803.5718 46.8401)">
		</image>
	</g>
</g>
<g>
	<g>
		
			<image style="overflow:visible;enable-background:new    ;" width="511" height="34" xlink:href="B789EFBD.png"  transform="matrix(0.9216 0 0 0.9216 253.4421 37.8475)">
		</image>
	</g>
</g>
<rect id="Water_1" x="849.8" y="707.6" class="st0" width="140.1" height="19.4"/>
<rect id="Water_2_00000178177592295888132300000003812885317886448053_" x="988.2" y="679.1" class="st0" width="19.8" height="22.6"/>
<rect id="Water_3" x="988.2" y="260" class="st0" width="19.8" height="230"/>
<rect id="Water_4_00000018221326492914578470000014473808141724045220_" x="988.2" y="60.7" class="st0" width="19.8" height="191.7"/>
<ellipse id="Suction_Pipe_Opening" class="st0" cx="849.8" cy="717.3" rx="2.9" ry="9.7"/>
<circle id="Suction_Pipe_Corner" class="st5" cx="995.6" cy="714.7" r="17.4"/>
<g>
	<g>
		
			<image style="overflow:visible;enable-background:new    ;" width="662" height="218" xlink:href="B789F019.png"  transform="matrix(0.9982 0 0 0.9982 176.6515 584.7543)">
		</image>
	</g>
</g>
<rect id="Water_8_00000181053212070445114170000008715850457176008092_" x="245.2" y="90.7" class="st0" width="18.7" height="150.4"/>
<rect id="Water_7_00000154414897353839577140000002405472591546814366_" x="245.2" y="58.7" class="st0" width="18.7" height="75.4"/>
<g id="Manometer_Scale_00000043417524155707118920000015404075486210264251_">
	<g>
		<g>
			
				<image style="overflow:visible;enable-background:new    ;" width="88" height="510" xlink:href="B789F061.png"  transform="matrix(0.2923 0 0 0.2923 845.5511 69.3592)">
			</image>
		</g>
	</g>
	<g>
		<g id="Manometer_Scale">
			<g>
				<line class="st6" x1="846.4" y1="156.1" x2="868.8" y2="156.1"/>
				<line class="st6" x1="846.4" y1="162.8" x2="868.8" y2="162.8"/>
				<line class="st6" x1="846.4" y1="169.5" x2="868.8" y2="169.5"/>
				<line class="st6" x1="846.4" y1="176.2" x2="868.8" y2="176.2"/>
				<line class="st6" x1="846.4" y1="182.9" x2="868.8" y2="182.9"/>
				<line class="st6" x1="846.4" y1="189.6" x2="868.8" y2="189.6"/>
				<line class="st6" x1="846.4" y1="196.3" x2="868.8" y2="196.3"/>
				<line class="st6" x1="846.4" y1="203" x2="868.8" y2="203"/>
				<line class="st6" x1="846.4" y1="209.7" x2="868.8" y2="209.7"/>
				<g>
					<rect x="846.5" y="70.3" class="st6" width="22.3" height="147.4"/>
					<line class="st6" x1="846.4" y1="77.8" x2="868.8" y2="77.8"/>
					<line class="st6" x1="846.4" y1="84.1" x2="868.8" y2="84.1"/>
					<line class="st6" x1="846.4" y1="90.3" x2="868.8" y2="90.3"/>
					<line class="st6" x1="846.4" y1="96.6" x2="868.8" y2="96.6"/>
					<line class="st6" x1="846.4" y1="102.8" x2="868.8" y2="102.8"/>
					<line class="st6" x1="846.4" y1="109.1" x2="868.8" y2="109.1"/>
					<line class="st6" x1="846.4" y1="115.8" x2="868.8" y2="115.8"/>
					<line class="st6" x1="846.4" y1="122.5" x2="868.8" y2="122.5"/>
					<line class="st6" x1="846.4" y1="129.2" x2="868.8" y2="129.2"/>
					<line class="st6" x1="846.4" y1="135.9" x2="868.8" y2="135.9"/>
					<line class="st6" x1="846.4" y1="142.6" x2="868.8" y2="142.6"/>
					<line class="st6" x1="846.4" y1="149.4" x2="868.8" y2="149.4"/>
					<rect x="852.7" y="71.1" class="st7" width="9.8" height="144.8"/>
					<text transform="matrix(1.1057 0 0 1 853.8818 79.2319)" class="st8 st9 st10">100</text>
					<text transform="matrix(1.1057 0 0 1 853.8809 211.5278)" class="st8 st9 st10">100</text>
					<text transform="matrix(1.144 0 0 1 855.9238 85.0981)" class="st8 st9 st11">90</text>
					<text transform="matrix(1.0581 0 0 1 856.0801 91.3042)" class="st8 st9 st12">80</text>
					<text transform="matrix(1.0581 0 0 1 856.1113 97.7358)" class="st8 st9 st12">70</text>
					<text transform="matrix(1.0581 0 0 1 856.1113 103.8228)" class="st8 st9 st12">60</text>
					<text transform="matrix(1.0581 0 0 1 856.1113 110.478)" class="st8 st9 st12">50</text>
					<text transform="matrix(1.0581 0 0 1 856.3535 117.4946)" class="st8 st9 st12">40</text>
					<text transform="matrix(1.0581 0 0 1 856.1113 123.6978)" class="st8 st9 st12">30</text>
					<text transform="matrix(1.0581 0 0 1 856.1113 130.2925)" class="st8 st9 st12">20</text>
					<text transform="matrix(1.0581 0 0 1 856.1113 137.0024)" class="st8 st9 st12">10</text>
					<text transform="matrix(1.0581 0 0 1 857.2568 144.0308)" class="st8 st9 st12">0</text>
					<text transform="matrix(1.0581 0 0 1 856.1113 150.7769)" class="st8 st9 st12">10</text>
					<text transform="matrix(1.0581 0 0 1 856.29 157.3403)" class="st8 st9 st12">20</text>
					<text transform="matrix(1.0581 0 0 1 856.1113 177.4575)" class="st8 st9 st12">50</text>
					<text transform="matrix(1.0581 0 0 1 855.9238 184.2769)" class="st8 st9 st12">60</text>
					<text transform="matrix(1.0581 0 0 1 855.9238 191.0942)" class="st8 st9 st12">70</text>
					<text transform="matrix(1.0581 0 0 1 855.9238 197.6929)" class="st8 st9 st12">80</text>
					<text transform="matrix(1.0581 0 0 1 855.9238 204.3989)" class="st8 st9 st12">90</text>
					<text transform="matrix(1.0581 0 0 1 856.1113 170.6548)" class="st8 st9 st12">40</text>
					<text transform="matrix(1.0581 0 0 1 856.1113 164.0649)" class="st8 st9 st12">30</text>
				</g>
			</g>
		</g>
		<text transform="matrix(0.9985 0 0 1 853.2988 74.3608)" class="st8 st9 st13">mm Hg</text>
	</g>
</g>
<g id="Pressure_Reading">
	<g>
		<g>
			
				<image style="overflow:visible;enable-background:new    ;" width="506" height="139" xlink:href="B789F01C.png"  transform="matrix(0.1008 0 0 0.1008 198.8559 207.1523)">
			</image>
		</g>
	</g>
	<g id="Fringe_2_00000112622058946311706200000016325904198235335051_">
		<g>
			
				<image style="overflow:visible;enable-background:new    ;" width="328" height="505" xlink:href="../Venturimeter Exp/C52FA757.png"  transform="matrix(-5.787439e-02 0 0 -5.787439e-02 208.2734 228.7718)">
			</image>
		</g>
	</g>
	<g>
		<g>
			
				<image style="overflow:visible;enable-background:new    ;" width="288" height="508" xlink:href="B789F02A.png"  transform="matrix(5.909139e-02 0 0 5.909139e-02 185.3692 199.1493)">
			</image>
		</g>
	</g>
	<g>
		<g>
			
				<image style="overflow:visible;enable-background:new    ;" width="509" height="92" xlink:href="B789F02B.png"  transform="matrix(0.1514 0 0 0.1514 116.8664 207.1962)">
			</image>
		</g>
	</g>
	<g id="Pressure_Gauge">
		<g>
			<g>
				
					<image style="overflow:visible;enable-background:new    ;" width="505" height="511" xlink:href="B789F066.png"  transform="matrix(8.774594e-18 -0.1433 0.1433 8.774594e-18 50.2247 249.9624)">
				</image>
			</g>
		</g>
		<g>
			<g>
				
					<image style="overflow:visible;enable-background:new    ;" width="510" height="478" xlink:href="B789F079.png"  transform="matrix(1.058707e-17 -0.1729 0.1729 1.058707e-17 45.1511 258.2391)">
				</image>
			</g>
		</g>
		<g>
			<line class="st14" x1="86.1" y1="182.2" x2="86.1" y2="188.6"/>
			<line class="st14" x1="96.6" y1="183.8" x2="94.7" y2="189.9"/>
			<line class="st14" x1="105.9" y1="188.4" x2="102.1" y2="193.6"/>
			<line class="st14" x1="113.1" y1="195.5" x2="108" y2="199.4"/>
			<line class="st14" x1="117.9" y1="204.4" x2="111.8" y2="206.5"/>
			<line class="st14" x1="119.6" y1="214.8" x2="113.1" y2="214.8"/>
			<line class="st14" x1="117.9" y1="225" x2="111.8" y2="222.9"/>
			<line class="st14" x1="113.1" y1="234" x2="107.9" y2="230.1"/>
			<line class="st14" x1="105.9" y1="241" x2="102.1" y2="235.7"/>
			<line class="st14" x1="96.7" y1="245.6" x2="94.7" y2="239.5"/>
			<line class="st14" x1="86.1" y1="247.3" x2="86.1" y2="240.7"/>
			<line class="st14" x1="75.6" y1="245.6" x2="77.6" y2="239.4"/>
			<line class="st14" x1="66.4" y1="241.1" x2="70.1" y2="235.7"/>
			<line class="st14" x1="59.1" y1="234" x2="64.3" y2="230.1"/>
			<line class="st14" x1="54.3" y1="225" x2="60.6" y2="222.9"/>
			<line class="st14" x1="52.6" y1="214.8" x2="59.2" y2="214.8"/>
		</g>
		<g>
			<line class="st14" x1="86.1" y1="182.2" x2="86.1" y2="188.6"/>
			<line class="st14" x1="77.3" y1="183.3" x2="78.9" y2="189.5"/>
			<line class="st14" x1="69.3" y1="186.6" x2="72.5" y2="192.2"/>
			<line class="st14" x1="62.5" y1="191.6" x2="67" y2="196.3"/>
			<line class="st14" x1="57.2" y1="198.2" x2="62.8" y2="201.6"/>
			<line class="st14" x1="53.8" y1="206" x2="60.1" y2="207.8"/>
			<line class="st14" x1="52.6" y1="214.8" x2="59.2" y2="214.8"/>
		</g>
		<polygon class="st15" points="85,215.8 97.1,228 95.5,229.7 102.5,231.2 100.8,224.2 99,226.1 86.8,213.9 		"/>
		<circle class="st16" cx="85.9" cy="214.8" r="3.4"/>
	</g>
</g>
<circle id="Pressure_Pipe_Corner" class="st5" cx="254.1" cy="214.4" r="14.1"/>
<g>
	<g>
		
			<image style="overflow:visible;enable-background:new    ;" width="512" height="177" xlink:href="B789F020.png"  transform="matrix(0.225 0 0 0.225 34.7503 296.533)">
		</image>
	</g>
</g>
<path class="st17" d="M136.1,333.3H47.3c-5.4,0-9.8-4.3-9.8-9.7v-10.2c0-5.3,4.3-9.7,9.8-9.7H136c5.4,0,9.8,4.3,9.8,9.7v10.2
	C145.8,328.9,141.5,333.3,136.1,333.3z"/>
<text transform="matrix(0.9229 0 0 1 47.252 323.834)" class="st9 st18">100 kg/cm^2</text>
<text transform="matrix(1.0397 0 0 1 771.1367 114.6099)" class="st19 st20">h1</text>
<g>
	<g>
		
			<image style="overflow:visible;enable-background:new    ;" width="505" height="446" xlink:href="B789F039.png"  transform="matrix(0.1106 0 0 0.1106 750.2334 123.5808)">
		</image>
	</g>
</g>
<path class="st17" d="M792.6,167.9h-29.2c-4.7,0-8.6-3.8-8.6-8.6v-18.8c0-4.7,3.8-8.6,8.6-8.6h29.2c4.7,0,8.6,3.8,8.6,8.6v18.8
	C801.1,164.1,797.3,167.9,792.6,167.9z"/>
<text transform="matrix(1.0849 0 0 1 763.7197 148.6812)" class="st9 st21">100</text>
<text transform="matrix(1.0849 0 0 1 765.5146 162.2749)" class="st9 st21">mm</text>
<text transform="matrix(1.0397 0 0 1 931.6592 114.4609)" class="st19 st20">h2</text>
<g>
	<g>
		
			<image style="overflow:visible;enable-background:new    ;" width="510" height="445" xlink:href="B789F03A.png"  transform="matrix(0.1101 0 0 0.1101 911.6088 123.5997)">
		</image>
	</g>
</g>
<path class="st17" d="M954.1,167.8h-29.2c-4.7,0-8.6-3.8-8.6-8.6v-18.8c0-4.7,3.8-8.6,8.6-8.6h29.2c4.7,0,8.6,3.8,8.6,8.6v18.8
	C962.7,163.9,958.8,167.8,954.1,167.8z"/>
<text transform="matrix(1.0849 0 0 1 925.2422 148.5322)" class="st9 st21">100</text>
<text transform="matrix(1.0849 0 0 1 927.0371 162.126)" class="st9 st21">mm</text>
<text transform="matrix(1.0397 0 0 1 63.0996 285.8086)" class="st19 st22">Pressure</text>
<text transform="matrix(1.0397 0 0 1 302.1943 106.2002)" class="st19 st22">Flow Control</text>
<text transform="matrix(1.0397 0 0 1 332.9282 236.96)" class="st19 st22">Handle to </text>
<text transform="matrix(1.0397 0 0 1 318.8926 255.46)" class="st19 st22">Control Vanes</text>
<text transform="matrix(1.0397 0 0 1 328.187 124.7002)" class="st19 st22">Valve</text>
<text transform="matrix(1.0397 0 0 1 1070.4961 244.8501)" class="st19 st22">Flow Opening</text>
<text transform="matrix(1.0397 0 0 1 1099.1914 263.3501)" class="st19 st22">Valve</text>
<rect id="Water_6_00000168117311549382392820000000397660189640725679_" x="257.1" y="44.8" class="st0" width="447.6" height="19.4"/>
<polygon id="Verturimeter_Water_Right" class="st0" points="878.3,62.7 834.4,60 834.4,49.7 878.4,47.2 "/>
<g id="Venturimeter_Flanges_Right">
	<g>
		<g>
			
				<image style="overflow:visible;enable-background:new    ;" width="399" height="509" xlink:href="B789F04E.png"  transform="matrix(8.821183e-02 0 0 8.821183e-02 872.9091 30.6892)">
			</image>
		</g>
	</g>
	<g>
		<g>
			
				<image style="overflow:visible;enable-background:new    ;" width="399" height="510" xlink:href="B789F0EC.png"  transform="matrix(8.810458e-02 0 0 8.810458e-02 885.9382 30.7857)">
			</image>
		</g>
	</g>
</g>
<ellipse id="Suction_Pipe_Opening_00000017507933031533233400000005167268999278761121_" class="st0" cx="910.8" cy="54.8" rx="3.4" ry="10"/>
<circle id="Suction_Pipe_Corner_00000054262970459153180510000014349526325921140145_" class="st5" cx="257.3" cy="56.6" r="17.4"/>
<rect id="Water_5_00000121246892066337760400000013494994064657416380_" x="910.5" y="44.9" class="st0" width="78.7" height="19.9"/>
<rect id="Verturimeter_Water_Left" x="803.4" y="49.7" class="st0" width="31" height="10.3"/>
<g id="Venturimeter_Flanges_Left">
	<g>
		<g>
			
				<image style="overflow:visible;enable-background:new    ;" width="390" height="509" xlink:href="B789F0ED.png"  transform="matrix(8.897027e-02 0 0 8.897027e-02 696.3505 30.4962)">
			</image>
		</g>
	</g>
	<g>
		<g>
			
				<image style="overflow:visible;enable-background:new    ;" width="392" height="509" xlink:href="B789F0EE.png"  transform="matrix(8.880155e-02 0 0 8.880155e-02 709.4805 30.5391)">
			</image>
		</g>
	</g>
</g>
<ellipse id="Suction_Pipe_Opening_00000095319132878784498700000014069824642675118511_" class="st0" cx="735.3" cy="54.5" rx="3.9" ry="9.1"/>
<polygon id="Water_4_00000046320982811315112380000003719977335309594753_" class="st0" points="803.4,60 735.3,63.5 735.3,45.5 
	803.4,49.7 "/>
<circle id="Suction_Pipe_Corner_00000035518070580283282220000008639339393854298022_" class="st5" cx="994.6" cy="58.3" r="17.4"/>
<g id="Flow_valve">
	<g>
		<g>
			
				<image style="overflow:visible;enable-background:new    ;" width="510" height="390" xlink:href="B789F0F6.png"  transform="matrix(0.12 0 0 0.12 971.6897 230.4394)">
			</image>
		</g>
	</g>
	<g>
		<g>
			
				<image style="overflow:visible;enable-background:new    ;" width="504" height="230" xlink:href="B789F0FB.png"  transform="matrix(4.362986e-02 0 0 4.362986e-02 1026.6189 248.822)">
			</image>
		</g>
	</g>
	<g>
		<g>
			
				<image style="overflow:visible;enable-background:new    ;" width="281" height="511" xlink:href="B789F0FC.png"  transform="matrix(8.215453e-02 0 0 8.215453e-02 1036.8751 232.8095)">
			</image>
		</g>
	</g>
</g>
<g id="Flow_valve_00000115508738113360649200000008848507824959791806_">
	<g>
		<g>
			
				<image style="overflow:visible;enable-background:new    ;" width="510" height="390" xlink:href="B789F0F6.png"  transform="matrix(-0.1067 0 0 -0.1067 280.9875 132.2967)">
			</image>
		</g>
	</g>
	<g>
		<g>
			
				<image style="overflow:visible;enable-background:new    ;" width="504" height="230" xlink:href="B789F0FB.png"  transform="matrix(-3.881671e-02 0 0 -3.881671e-02 232.1179 115.9421)">
			</image>
		</g>
	</g>
	<g>
		<g>
			
				<image style="overflow:visible;enable-background:new    ;" width="281" height="511" xlink:href="B789F0FC.png"  transform="matrix(-7.309142e-02 0 0 -7.309142e-02 222.9931 130.1881)">
			</image>
		</g>
	</g>
</g>
<g id="Arrows">
	<g id="Arrow_1">
		<rect x="996.7" y="426.2" class="st23" width="3.2" height="15.8"/>
		<polyline class="st23" points="992.3,426.2 998.3,418 1004.3,426.2 		"/>
	</g>
	<g id="Arrow_2">
		<rect x="996.7" y="343.2" class="st23" width="3.2" height="15.8"/>
		<polyline class="st23" points="992.3,343.2 998.3,335 1004.3,343.2 		"/>
	</g>
	<g id="Arrow_6">
		<rect x="656.1" y="53.1" class="st23" width="15.8" height="3.2"/>
		<polyline class="st23" points="656.1,60.7 647.9,54.7 656.1,48.7 		"/>
	</g>
	<g id="Arrow_7">
		<rect x="573.1" y="53.1" class="st23" width="15.8" height="3.2"/>
		<polyline class="st23" points="573.1,60.7 564.9,54.7 573.1,48.7 		"/>
	</g>
	<g id="Arrow_9_00000020365401400691123350000005359403510993090479_">
		<rect x="399.3" y="55.1" class="st23" width="15.8" height="3.2"/>
		<polyline class="st23" points="399.3,62.7 391.1,56.7 399.3,50.7 		"/>
	</g>
	<g id="Arrow_10">
		<rect x="316.3" y="55.1" class="st23" width="15.8" height="3.2"/>
		<polyline class="st23" points="316.3,62.7 308.1,56.7 316.3,50.7 		"/>
	</g>
	<g id="Arrow_3">
		<rect x="996.7" y="190.8" class="st23" width="3.2" height="15.8"/>
		<polyline class="st23" points="992.3,190.8 998.3,182.6 1004.3,190.8 		"/>
	</g>
	<g id="Arrow_11">
		<rect x="253.4" y="148.4" class="st23" width="3.2" height="15.8"/>
		<polyline class="st23" points="261,164.2 255,172.4 249,164.2 		"/>
	</g>
	<g id="Arrow_4">
		<rect x="996.7" y="107.8" class="st23" width="3.2" height="15.8"/>
		<polyline class="st23" points="992.3,107.8 998.3,99.6 1004.3,107.8 		"/>
	</g>
	<g id="Arrow_5">
		<rect x="943.9" y="53.5" class="st23" width="15.8" height="3.2"/>
		<polyline class="st23" points="943.9,61.1 935.7,55.1 943.9,49.1 		"/>
	</g>
	<g id="Arrow_8">
		<rect x="485.1" y="53.5" class="st23" width="15.8" height="3.2"/>
		<polyline class="st23" points="485.1,61.1 476.9,55.1 485.1,49.1 		"/>
	</g>
</g>
<g>
	<g>
		
			<image style="overflow:visible;enable-background:new    ;" width="390" height="509" xlink:href="B789F0ED.png"  transform="matrix(-2.293304e-17 8.897027e-02 -0.1248 -1.634357e-17 285.2128 236.7832)">
		</image>
	</g>
</g>
<g>
	<g>
		
			<image style="overflow:visible;enable-background:new    ;" width="508" height="406" xlink:href="46C8834C.png"  transform="matrix(0.1251 0 0 9.079347e-02 221.6684 249.5381)">
		</image>
	</g>
</g>
<g>
	<g>
		
			<image style="overflow:visible;enable-background:new    ;" width="278" height="508" xlink:href="46C8834D.png"  transform="matrix(0.1712 0 0 0.1005 231.0851 274.4112)">
		</image>
	</g>
</g>
<rect id="Water_7_00000023989809500161872000000016802065931885833653_" x="237.2" y="275.2" class="st0" width="34.7" height="209.7"/>
<ellipse id="Case_Pipe_Opening" class="st0" cx="254.6" cy="274.7" rx="17.4" ry="5"/>
<line class="st24" x1="510.9" y1="218.2" x2="514.8" y2="342.6"/>
<g>
	<g>
		
			<image style="overflow:visible;enable-background:new    ;" width="513" height="498" xlink:href="B789F004.png"  transform="matrix(0.1643 0 0 0.1643 511.1895 297.1019)">
		</image>
	</g>
</g>
<g>
	<g>
		
			<image style="overflow:visible;enable-background:new    ;" width="460" height="514" xlink:href="B789F005.png"  transform="matrix(0.5413 0 0 0.5413 432.7195 204.2867)">
		</image>
	</g>
</g>
<g>
	<g>
		
			<image style="overflow:visible;enable-background:new    ;" width="512" height="401" xlink:href="46C883A1.png"  transform="matrix(0.3362 0 0 0.3362 386.6969 330.7446)">
		</image>
	</g>
</g>
<path class="st24" d="M576.5,363.1"/>
<g>
	<path class="st24" d="M585.4,219.1l3.8,123.4c0.1,3.5-0.1,9.9-3.3,16.9c-2.2,4.9-8.4,8.5-11.2,10.3"/>
	<path class="st25" d="M575.6,370.9c-0.3,0.1-1.6,0.4-2.8,0.2c-0.7-0.1-1.3-0.4-1.4-0.4c-0.3-0.1-0.1,0-0.2-0.1
		c0.6-0.4,2.3-1.9,2.9-2.3C575.1,368.9,575.6,370,575.6,370.9z"/>
</g>
<g id="Weight1_Gauge">
	<g>
		<g>
			
				<image style="overflow:visible;enable-background:new    ;" width="493" height="503" xlink:href="B789F07A.png"  transform="matrix(8.939152e-02 0 0 8.939152e-02 490.5707 241.7308)">
			</image>
		</g>
	</g>
	<g>
		<g>
			
				<image style="overflow:visible;enable-background:new    ;" width="504" height="488" xlink:href="B789F078.png"  transform="matrix(0.1029 0 0 0.1029 486.4382 238.8728)">
			</image>
		</g>
	</g>
	<g>
		<line class="st14" x1="531" y1="264.1" x2="527.4" y2="264.1"/>
		<line class="st14" x1="530.1" y1="270.3" x2="526.6" y2="269.3"/>
		<line class="st14" x1="527.5" y1="275.8" x2="524.4" y2="273.7"/>
		<line class="st14" x1="523.5" y1="280.1" x2="521.2" y2="277.2"/>
		<line class="st14" x1="518.3" y1="283" x2="517.1" y2="279.5"/>
		<line class="st14" x1="512.4" y1="284" x2="512.4" y2="280.3"/>
		<line class="st14" x1="506.4" y1="283" x2="507.7" y2="279.5"/>
		<line class="st14" x1="501.2" y1="280.2" x2="503.6" y2="277.2"/>
		<line class="st14" x1="497.2" y1="275.8" x2="500.3" y2="273.7"/>
		<line class="st14" x1="494.5" y1="270.4" x2="498.2" y2="269.2"/>
		<line class="st14" x1="493.6" y1="264.1" x2="497.4" y2="264.1"/>
		<line class="st14" x1="494.5" y1="257.8" x2="498.2" y2="258.9"/>
		<line class="st14" x1="497.2" y1="252.3" x2="500.4" y2="254.5"/>
		<line class="st14" x1="501.2" y1="248" x2="503.6" y2="251"/>
		<line class="st14" x1="506.4" y1="245.1" x2="507.7" y2="248.8"/>
		<line class="st14" x1="512.4" y1="244" x2="512.4" y2="248"/>
	</g>
	<g>
		<line class="st14" x1="531" y1="264.1" x2="527.4" y2="264.1"/>
		<line class="st14" x1="530.4" y1="258.8" x2="526.8" y2="259.7"/>
		<line class="st14" x1="528.6" y1="254.1" x2="525.3" y2="255.9"/>
		<line class="st14" x1="525.7" y1="250" x2="522.9" y2="252.6"/>
		<line class="st14" x1="521.9" y1="246.9" x2="519.8" y2="250.1"/>
		<line class="st14" x1="517.4" y1="244.8" x2="516.3" y2="248.5"/>
		<line class="st14" x1="512.4" y1="244" x2="512.4" y2="248"/>
	</g>
	<polygon class="st15" points="512.6,263.2 505.2,255.8 506.3,254.8 502,253.9 503,258.1 504.2,257 511.5,264.3 	"/>
	<path class="st16" d="M512,261.6c1.2,0,2.1,0.9,2.1,2.1s-0.9,2.1-2.1,2.1s-2.1-0.9-2.1-2.1S510.8,261.6,512,261.6z"/>
</g>
<g id="Weight_2_Gauge">
	<g>
		<g>
			
				<image style="overflow:visible;enable-background:new    ;" width="497" height="503" xlink:href="B789F055.png"  transform="matrix(8.903684e-02 0 0 8.903684e-02 564.7781 241.82)">
			</image>
		</g>
	</g>
	<g>
		<g>
			
				<image style="overflow:visible;enable-background:new    ;" width="506" height="488" xlink:href="B789F05B.png"  transform="matrix(0.1027 0 0 0.1027 560.6866 238.9242)">
			</image>
		</g>
	</g>
	<g>
		<line class="st14" x1="605.3" y1="264.1" x2="601.7" y2="264.1"/>
		<line class="st14" x1="604.4" y1="270.3" x2="600.9" y2="269.3"/>
		<line class="st14" x1="601.8" y1="275.8" x2="598.7" y2="273.7"/>
		<line class="st14" x1="597.8" y1="280.1" x2="595.5" y2="277.2"/>
		<line class="st14" x1="592.6" y1="283" x2="591.4" y2="279.5"/>
		<line class="st14" x1="586.7" y1="284" x2="586.7" y2="280.3"/>
		<line class="st14" x1="580.7" y1="283" x2="582" y2="279.5"/>
		<line class="st14" x1="575.5" y1="280.2" x2="577.9" y2="277.2"/>
		<line class="st14" x1="571.5" y1="275.8" x2="574.6" y2="273.7"/>
		<line class="st14" x1="568.8" y1="270.4" x2="572.5" y2="269.2"/>
		<line class="st14" x1="567.9" y1="264.1" x2="571.7" y2="264.1"/>
		<line class="st14" x1="568.8" y1="257.8" x2="572.5" y2="258.9"/>
		<line class="st14" x1="571.5" y1="252.3" x2="574.7" y2="254.5"/>
		<line class="st14" x1="575.5" y1="248" x2="577.9" y2="251"/>
		<line class="st14" x1="580.7" y1="245.1" x2="582" y2="248.8"/>
		<line class="st14" x1="586.7" y1="244" x2="586.7" y2="248"/>
	</g>
	<g>
		<line class="st14" x1="605.3" y1="264.1" x2="601.7" y2="264.1"/>
		<line class="st14" x1="604.7" y1="258.8" x2="601.1" y2="259.7"/>
		<line class="st14" x1="602.9" y1="254.1" x2="599.6" y2="255.9"/>
		<line class="st14" x1="600" y1="250" x2="597.2" y2="252.6"/>
		<line class="st14" x1="596.2" y1="246.9" x2="594.1" y2="250.1"/>
		<line class="st14" x1="591.7" y1="244.8" x2="590.6" y2="248.5"/>
		<line class="st14" x1="586.7" y1="244" x2="586.7" y2="248"/>
	</g>
	<polygon class="st15" points="586.9,263.2 579.5,255.8 580.6,254.8 576.3,253.9 577.3,258.1 578.5,257 585.8,264.3 	"/>
	<circle class="st16" cx="586.3" cy="263.7" r="2.1"/>
</g>
<text transform="matrix(1.0397 0 0 1 473.4346 149.1401)" class="st19 st20">Weight 1</text>
<text transform="matrix(1.0397 0 0 1 568.0088 149.9609)" class="st19 st20">Weight 2</text>
<text transform="matrix(1.0397 0 0 1 467.2051 241.8198)" class="st19 st26">W1</text>
<text transform="matrix(1.0397 0 0 1 613.7578 251.2168)" class="st19 st26">W2</text>
<g>
	<g>
		
			<image style="overflow:visible;enable-background:new    ;" width="507" height="265" xlink:href="B789F021.png"  transform="matrix(0.14 0 0 0.14 468.1269 162.6464)">
		</image>
	</g>
</g>
<path class="st17" d="M524.1,195.1h-41.5c-5,0-9-4-9-9v-5.2c0-5,4-9,9-9h41.5c5,0,9,4,9,9v5.2C533.1,191,529.1,195.1,524.1,195.1z"
	/>
<text transform="matrix(0.9229 0 0 1 478.4551 189.1377)" class="st9 st27">100 kg</text>
<g>
	<g>
		
			<image style="overflow:visible;enable-background:new    ;" width="507" height="266" xlink:href="B789F038.png"  transform="matrix(0.1399 0 0 0.1399 561.1553 163.5915)">
		</image>
	</g>
</g>
<path class="st17" d="M617.1,196.1h-41.5c-5,0-9-4-9-9v-5.2c0-5,4-9,9-9h41.5c5,0,9,4,9,9v5.2C626.1,192,622.1,196.1,617.1,196.1z"
	/>
<text transform="matrix(0.9229 0 0 1 573.4541 190.1377)" class="st9 st27">100 kg</text>
<text transform="matrix(1.0397 0 0 1 589.1943 401.1904)" class="st19 st20">RPM</text>
<g>
	<g>
		
			<image style="overflow:visible;enable-background:new    ;" width="507" height="266" xlink:href="B789F038.png"  transform="matrix(0.1399 0 0 0.1399 573.5647 411.8207)">
		</image>
	</g>
</g>
<path class="st17" d="M629.5,444.3H588c-5,0-9-4-9-9v-5.2c0-5,4-9,9-9h41.5c5,0,9,4,9,9v5.2C638.5,440.2,634.5,444.3,629.5,444.3z"
	/>
<text transform="matrix(0.9229 0 0 1 589.9531 439.3672)" class="st9 st27">1000</text>
<g id="Handle">
	<g>
		<g>
			
				<image style="overflow:visible;enable-background:new    ;" width="263" height="511" xlink:href="46C883A0.png"  transform="matrix(0.299 0 0 0.299 304.5671 286.1739)">
			</image>
		</g>
	</g>
	<g>
		<g>
			
				<image style="overflow:visible;enable-background:new    ;" width="506" height="496" xlink:href="46C8839B.png"  transform="matrix(9.289614e-02 0 0 9.289614e-02 288.414 263.2242)">
			</image>
		</g>
	</g>
</g>
<path id="Back_Casing" class="st7" d="M367.8,346.3c48.2-4.3,82.1,25.5,86.6,29.6c5.9,5.4,37.7,35.4,37.6,83.7
	c-0.1,40.5-22.6,67.6-30.4,76.1c-27.1,29.5-64.4,39.1-92.3,37.8c-17.9-0.9-34-6.4-46-10.4c-17.8-6-27.5-11.9-34-16.5
	c0,0-7.5-4.9-12.7-10.5c-31.5-33.7-14.5-93.4-13.1-97.9C275.4,398.1,312.4,351.3,367.8,346.3z"/>
<path class="st28" d="M491.7,452.9c0.5,9.6,1.6,47.9-26,80.7c-32.6,38.9-80.1,40.1-89.6,40.3c-27.7,0.7-49.4-8.5-60.3-13.2
	c-10.5-4.5-26-11.3-39.3-24.6c-29.5-29.6-28.7-72.3-28.1-84.7"/>
<linearGradient id="Main_Jet_00000117640586896585388750000015080028195462383020_" gradientUnits="userSpaceOnUse" x1="283.2" y1="-351.35" x2="380.6" y2="-351.35" gradientTransform="matrix(1 0 0 1 0 882)">
	<stop  offset="4.155676e-07" style="stop-color:#8AE3FF"/>
	<stop  offset="0.167" style="stop-color:#97E6FF"/>
	<stop  offset="0.4748" style="stop-color:#B8EEFF"/>
	<stop  offset="0.8861" style="stop-color:#EFFBFF"/>
	<stop  offset="1" style="stop-color:#FFFFFF"/>
</linearGradient>
<rect id="Main_Jet" x="283.2" y="520.8" style="fill:url(#Main_Jet_00000117640586896585388750000015080028195462383020_);" width="97.4" height="19.7"/>
<g id="Turbine_Wheel">
	<g>
		
			<image style="overflow:visible;enable-background:new    ;" width="498" height="514" xlink:href="46C88380.png"  transform="matrix(0.3548 0 0 0.3548 295.6546 372.0912)">
		</image>
	</g>
</g>
<g id="Drops" class="st30">
	
		<radialGradient id="Drop_11_00000018943835007746353900000006387767166478034085_" cx="-2785.7637" cy="1246.8588" r="9.422" gradientTransform="matrix(0.3283 3.244083e-02 4.242862e-02 -0.4294 1218.4839 1162.0223)" gradientUnits="userSpaceOnUse">
		<stop  offset="0.3309" style="stop-color:#51A9F0;stop-opacity:0.462"/>
		<stop  offset="0.9755" style="stop-color:#51A9F0"/>
	</radialGradient>
	
		<path id="Drop_11" style="opacity:0.67;fill:url(#Drop_11_00000018943835007746353900000006387767166478034085_);enable-background:new    ;" d="
		M360,536.1c-0.2,1.7-1.9,3.5-3.6,3.3s-2.9-1.9-2.7-4c0.2-2.6,3.8-5.5,3.8-5.5S360.3,533.4,360,536.1z"/>
	
		<radialGradient id="Drop_10_00000106844974119641774520000016459416621047219619_" cx="-2611.7104" cy="1405.8132" r="9.422" gradientTransform="matrix(0.3298 9.072594e-03 1.186582e-02 -0.4313 1198.3296 1177.3168)" gradientUnits="userSpaceOnUse">
		<stop  offset="0.3309" style="stop-color:#51A9F0;stop-opacity:0.462"/>
		<stop  offset="0.9755" style="stop-color:#51A9F0"/>
	</radialGradient>
	
		<path id="Drop_10" style="opacity:0.67;fill:url(#Drop_10_00000106844974119641774520000016459416621047219619_);enable-background:new    ;" d="
		M356.9,547c-0.1,1.7-1.6,3.6-3.3,3.5c-1.7-0.1-3.1-1.7-3-3.8c0-2.6,3.4-5.8,3.4-5.8S357,544.2,356.9,547z"/>
	
		<radialGradient id="Drop_9_00000002386620667885886270000003554724422211856810_" cx="-2431.0164" cy="1534.4109" r="9.4129" gradientTransform="matrix(0.3299 -5.544094e-03 -7.251027e-03 -0.4314 1188.5258 1194.2181)" gradientUnits="userSpaceOnUse">
		<stop  offset="0.3309" style="stop-color:#51A9F0;stop-opacity:0.462"/>
		<stop  offset="0.9755" style="stop-color:#51A9F0"/>
	</radialGradient>
	
		<path id="Drop_9" style="opacity:0.67;fill:url(#Drop_9_00000002386620667885886270000003554724422211856810_);enable-background:new    ;" d="
		M378.6,545.3c0,1.7-1.5,3.7-3.2,3.7s-3.1-1.6-3.2-3.7c-0.1-2.6,3.2-5.9,3.2-5.9S378.6,542.5,378.6,545.3z"/>
	
		<radialGradient id="Drop_8_00000133521703160358272560000003465283044748639657_" cx="-2360.2766" cy="1510.5386" r="9.4103" gradientTransform="matrix(0.3299 -5.544094e-03 -7.251027e-03 -0.4314 1188.5258 1194.2181)" gradientUnits="userSpaceOnUse">
		<stop  offset="0.3309" style="stop-color:#51A9F0;stop-opacity:0.462"/>
		<stop  offset="0.9755" style="stop-color:#51A9F0"/>
	</radialGradient>
	
		<path id="Drop_8" style="opacity:0.67;fill:url(#Drop_8_00000133521703160358272560000003465283044748639657_);enable-background:new    ;" d="
		M402.1,555.2c0,1.7-1.5,3.7-3.2,3.7s-3.1-1.6-3.2-3.7c-0.1-2.6,3.2-5.9,3.2-5.9S402.1,552.4,402.1,555.2z"/>
	
		<radialGradient id="Drop_7_00000035514348525975085700000005656835671799048126_" cx="-2381.3979" cy="1527.4966" r="9.422" gradientTransform="matrix(0.3299 -5.544094e-03 -7.251027e-03 -0.4314 1188.5258 1194.2181)" gradientUnits="userSpaceOnUse">
		<stop  offset="0.3309" style="stop-color:#51A9F0;stop-opacity:0.462"/>
		<stop  offset="0.9755" style="stop-color:#51A9F0"/>
	</radialGradient>
	
		<path id="Drop_7" style="opacity:0.67;fill:url(#Drop_7_00000035514348525975085700000005656835671799048126_);enable-background:new    ;" d="
		M395,548c0,1.7-1.5,3.7-3.2,3.7s-3.1-1.6-3.2-3.7c-0.1-2.6,3.2-5.9,3.2-5.9S395,545.2,395,548z"/>
	
		<radialGradient id="Drop_6_00000036950317035872772210000010001139035815184567_" cx="-2573.3296" cy="1351.7709" r="9.422" gradientTransform="matrix(0.3295 1.735722e-02 2.270110e-02 -0.4309 1202.277 1169.6786)" gradientUnits="userSpaceOnUse">
		<stop  offset="0.3309" style="stop-color:#51A9F0;stop-opacity:0.462"/>
		<stop  offset="0.9755" style="stop-color:#51A9F0"/>
	</radialGradient>
	
		<path id="Drop_6" style="opacity:0.67;fill:url(#Drop_6_00000036950317035872772210000010001139035815184567_);enable-background:new    ;" d="
		M388.3,542.3c-0.1,1.7-1.7,3.5-3.4,3.4c-1.7-0.1-3-1.8-2.9-3.9c0.1-2.6,3.6-5.7,3.6-5.7S388.4,539.5,388.3,542.3z"/>
	
		<radialGradient id="Drop_5_00000111872474550508974600000011742644739708614285_" cx="-1583.6699" cy="2069.5537" r="9.42" gradientTransform="matrix(0.3179 -8.825833e-02 -0.1154 -0.4158 1138.1229 1258.5056)" gradientUnits="userSpaceOnUse">
		<stop  offset="0.3309" style="stop-color:#51A9F0;stop-opacity:0.462"/>
		<stop  offset="0.9755" style="stop-color:#51A9F0"/>
	</radialGradient>
	
		<path id="Drop_5" style="opacity:0.67;fill:url(#Drop_5_00000111872474550508974600000011742644739708614285_);enable-background:new    ;" d="
		M398.8,536.5c0.4,1.7-0.5,3.9-2.2,4.3c-1.7,0.4-3.4-0.7-4-2.7c-0.7-2.5,1.6-6.5,1.6-6.5S398.1,533.8,398.8,536.5z"/>
	
		<radialGradient id="Drop_4_00000179645053352141342690000001353706049101119650_" cx="-2714.4241" cy="1252.6433" r="9.422" gradientTransform="matrix(0.3288 2.761459e-02 3.611648e-02 -0.43 1211.6986 1164.4834)" gradientUnits="userSpaceOnUse">
		<stop  offset="0.3309" style="stop-color:#51A9F0;stop-opacity:0.462"/>
		<stop  offset="0.9755" style="stop-color:#51A9F0"/>
	</radialGradient>
	
		<path id="Drop_4" style="opacity:0.67;fill:url(#Drop_4_00000179645053352141342690000001353706049101119650_);enable-background:new    ;" d="
		M367.6,550.7c-0.2,1.7-1.8,3.5-3.5,3.3s-3-1.9-2.8-4c0.2-2.6,3.8-5.6,3.8-5.6S367.9,547.9,367.6,550.7z"/>
	
		<radialGradient id="Drop_3_00000009589008636158879650000007554117981946870458_" cx="-2610.3635" cy="1365.8351" r="9.422" gradientTransform="matrix(0.3298 1.056490e-02 1.381758e-02 -0.4313 1199.7745 1173.7357)" gradientUnits="userSpaceOnUse">
		<stop  offset="0.3309" style="stop-color:#51A9F0;stop-opacity:0.462"/>
		<stop  offset="0.9755" style="stop-color:#51A9F0"/>
	</radialGradient>
	
		<path id="Drop_3" style="opacity:0.67;fill:url(#Drop_3_00000009589008636158879650000007554117981946870458_);enable-background:new    ;" d="
		M360.9,556.7c-0.1,1.7-1.6,3.6-3.4,3.5s-3.1-1.7-3-3.8c0.1-2.6,3.5-5.7,3.5-5.7S361.1,553.9,360.9,556.7z"/>
	
		<radialGradient id="Drop_2_00000022521001783392563780000014155654990130131344_" cx="-1593.5868" cy="2073.3467" r="9.4216" gradientTransform="matrix(0.3171 -9.125378e-02 -0.1193 -0.4147 1136.8541 1269.9869)" gradientUnits="userSpaceOnUse">
		<stop  offset="0.3309" style="stop-color:#51A9F0;stop-opacity:0.462"/>
		<stop  offset="0.9755" style="stop-color:#51A9F0"/>
	</radialGradient>
	
		<path id="Drop_2" style="opacity:0.67;fill:url(#Drop_2_00000022521001783392563780000014155654990130131344_);enable-background:new    ;" d="
		M387.1,554.3c0.4,1.7-0.5,3.9-2.1,4.4c-1.7,0.4-3.4-0.7-4-2.7c-0.7-2.5,1.5-6.5,1.5-6.5S386.4,551.6,387.1,554.3z"/>
	
		<radialGradient id="Drop_1_00000128457658205245786560000000601610219867682229_" cx="-2977.283" cy="878.3746" r="9.422" gradientTransform="matrix(0.3219 7.227602e-02 9.452819e-02 -0.421 1247.1119 1142.6096)" gradientUnits="userSpaceOnUse">
		<stop  offset="0.3309" style="stop-color:#51A9F0;stop-opacity:0.462"/>
		<stop  offset="0.9755" style="stop-color:#51A9F0"/>
	</radialGradient>
	
		<path id="Drop_1" style="opacity:0.67;fill:url(#Drop_1_00000128457658205245786560000000601610219867682229_);enable-background:new    ;" d="
		M375,557.9c-0.4,1.7-2.3,3.2-3.9,2.8c-1.7-0.4-2.7-2.3-2.2-4.3c0.5-2.5,4.5-5,4.5-5S375.6,555.2,375,557.9z"/>
</g>
<g class="st42">
	<g>
		
			<image style="overflow:visible;enable-background:new    ;" width="226" height="229" xlink:href="46C883FF.png"  transform="matrix(1.0045 0 0 1.0051 267.4909 345.7364)">
		</image>
	</g>
</g>
<g>
	<g>
		
			<image style="overflow:visible;" width="512" height="244" xlink:href="46C883F6.png"  transform="matrix(0.1973 0 0 0.1973 376.7661 435.7559)">
		</image>
	</g>
</g>
<g>
	<g>
		
			<image style="overflow:visible;" width="222" height="512" xlink:href="46C883F5.png"  transform="matrix(0.2168 0 0 0.2168 449.9063 457.7538)">
		</image>
	</g>
</g>
<rect id="Water_8" x="456.5" y="468.8" class="st0" width="34.9" height="99.5"/>
<rect id="Water_7" x="387.4" y="442.4" class="st0" width="88" height="35.3"/>
<circle id="Tank_Empty_Corner_00000047032647796746933340000001603408743156292488_" class="st43" cx="382.4" cy="459.7" r="24.4"/>
<circle id="Tank_Empty_Corner_00000165940050214422900460000010979325154365749422_" class="st43" cx="471.3" cy="463.8" r="28.5"/>
<g>
	<g>
		
			<image style="overflow:visible;enable-background:new    ;" width="149" height="515" xlink:href="46C88384.png"  transform="matrix(0.4488 0 0 0.4488 220.6684 314.0976)">
		</image>
	</g>
</g>
</svg>
