<?xml version="1.0" encoding="utf-8"?>
<!-- Generator: Adobe Illustrator 27.3.1, SVG Export Plug-In . SVG Version: 6.00 Build 0)  -->
<svg version="1.1" id="Layer_1" xmlns="http://www.w3.org/2000/svg" xmlns:xlink="http://www.w3.org/1999/xlink" x="0px" y="0px"
	 viewBox="0 0 1283.7 853.3" style="enable-background:new 0 0 1283.7 853.3;" xml:space="preserve">
<style type="text/css">
	.st0{fill:#8AE3FF;}
	.st1{fill:#BBC2CC;}
	.st2{fill:#1A2D58;}
	.st3{fill:#D1D3D4;}
	.st4{fill:#808285;}
	.st5{fill:#EDED90;stroke:#EFF0A3;stroke-width:3;stroke-miterlimit:10;}
	.st6{fill:none;stroke:#271D5D;stroke-width:0.75;stroke-miterlimit:10;}
	.st7{fill:#FFFFFF;}
	.st8{fill:#010101;}
	.st9{font-family:'ArialMT';}
	.st10{font-size:4.4897px;}
	.st11{font-size:4.0126px;}
	.st12{font-size:4.0123px;}
	.st13{font-size:3.5335px;}
	.st14{fill:none;stroke:#231F20;stroke-width:2;stroke-miterlimit:10;}
	.st15{fill:#828487;}
	.st16{fill:#231F20;}
	.st17{fill:#FFFFFF;stroke:#000000;stroke-width:2;stroke-miterlimit:10;}
	.st18{font-size:17px;}
	.st19{font-family:'TimesNewRomanPS-BoldMT';}
	.st20{font-size:15.3965px;}
	.st21{font-size:14.5738px;}
	.st22{font-size:15.4px;}
	.st23{fill:#009FB4;}
	.st24{fill:none;stroke:#717375;stroke-width:3;stroke-miterlimit:10;}
	.st25{fill:#717375;}
	.st26{font-size:17.5978px;}
	.st27{font-size:16.9671px;}
	.st28{fill:url(#Main_Jet_00000049937599831619122310000017467987891763892643_);}
	.st29{opacity:0;}
	.st30{opacity:0.67;fill:url(#Drop_11_00000094593852120170866320000005724845110749113505_);enable-background:new    ;}
	.st31{opacity:0.67;fill:url(#Drop_10_00000049202443216230458520000015867565059652134066_);enable-background:new    ;}
	.st32{opacity:0.67;fill:url(#Drop_9_00000108285761713122400910000008521664561840956341_);enable-background:new    ;}
	.st33{opacity:0.67;fill:url(#Drop_8_00000111190577777707091810000002570847535365938578_);enable-background:new    ;}
	.st34{opacity:0.67;fill:url(#Drop_7_00000051358927244176321790000003848448775062489767_);enable-background:new    ;}
	.st35{opacity:0.67;fill:url(#Drop_6_00000098922179590278602930000018219859032999836095_);enable-background:new    ;}
	.st36{opacity:0.67;fill:url(#Drop_5_00000180346560337813617610000009984889346622503305_);enable-background:new    ;}
	.st37{opacity:0.67;fill:url(#Drop_4_00000157275794408255624470000001845274582260041151_);enable-background:new    ;}
	.st38{opacity:0.67;fill:url(#Drop_3_00000078736934909161916900000013457094182508397748_);enable-background:new    ;}
	.st39{opacity:0.67;fill:url(#Drop_2_00000101804073920681551380000005651095620312290201_);enable-background:new    ;}
	.st40{opacity:0.67;fill:url(#Drop_1_00000052101999667302530260000009567578660028311210_);enable-background:new    ;}
	.st41{opacity:0.3;}
	.st42{fill:#999899;}
</style>
<g>
	<g>
		
			<image style="overflow:visible;enable-background:new    ;" width="36" height="515" xlink:href="BE12236.png"  transform="matrix(0.8562 0 0 0.8562 982.1879 57.6078)">
		</image>
	</g>
</g>
<rect id="Verturimeter_Water_Left_00000035524620157501483550000011411495042354387355_" x="816.7" y="61.2" class="st0" width="6.2" height="99.1"/>
<g>
	<g>
		
			<image style="overflow:visible;enable-background:new    ;" width="35" height="516" xlink:href="BE1223E.png"  transform="matrix(0.8547 0 0 0.9043 239.3429 60.3922)">
		</image>
	</g>
</g>
<rect id="Mercury_Right" x="894.6" y="160.3" class="st1" width="7" height="36.5"/>
<g id="Mercury_Fixed">
	<g>
		<path class="st1" d="M901.7,195.9c0.1,1,0,5.5-0.1,7.3c-0.1,2.7-0.6,9.3-4.6,16.9c-5.9,11-14,17.3-15.8,18.2
			c-3,1.5-15.7,8-29.3,5.7c-13.4-2.3-19.4-6.6-23.4-12c-10.3-10.7-11.7-25.7-11.7-35.9l6.9,0.3c0,8.4,0.8,19.4,9.2,28.3
			c3.3,3.5,8,9.9,18.9,11.8c11,1.9,22.5-3.7,24.9-4.9c1.4-0.7,8.9-6.2,13.7-15.3c3.4-6.3,3.7-10.4,3.8-12.6c0.1-1.4,0.7-6.9,0.6-7.8
			L901.7,195.9L901.7,195.9z"/>
	</g>
</g>
<rect id="Verturimeter_Water_Right_00000068643826572147975590000011604526973254985363_" x="895" y="62.1" class="st0" width="6.2" height="119.3"/>
<g>
	<g>
		
			<image style="overflow:visible;enable-background:new    ;" width="366" height="510" xlink:href="BE1223F.png"  transform="matrix(8.095858e-02 0 0 8.095858e-02 983.4346 675.6555)">
		</image>
	</g>
</g>
<g>
	<g>
		<g>
			
				<image style="overflow:visible;enable-background:new    ;" width="179" height="509" xlink:href="BE1222C.png"  transform="matrix(0.137 0 0 0.137 1019.6658 551.0873)">
			</image>
		</g>
	</g>
	<g>
		<g>
			
				<image style="overflow:visible;enable-background:new    ;" width="785" height="538" xlink:href="BE1222F.png"  transform="matrix(0.2399 0 0 0.2399 1041.7384 521.4214)">
			</image>
		</g>
	</g>
	<g>
		<g>
			
				<image style="overflow:visible;enable-background:new    ;" width="506" height="134" xlink:href="BE12223.png"  transform="matrix(8.396927e-02 0 0 8.396927e-02 1153.1158 559.4036)">
			</image>
		</g>
	</g>
	<g>
		<g>
			
				<image style="overflow:visible;enable-background:new    ;" width="506" height="127" xlink:href="BE12227.png"  transform="matrix(8.425064e-02 0 0 8.425064e-02 1153.0447 580.123)">
			</image>
		</g>
	</g>
	<g>
		<g>
			
				<image style="overflow:visible;enable-background:new    ;" width="506" height="133" xlink:href="BE12221.png"  transform="matrix(8.401021e-02 0 0 8.401021e-02 1153.1056 600.3298)">
			</image>
		</g>
	</g>
	<g>
		<g>
			
				<image style="overflow:visible;enable-background:new    ;" width="506" height="126" xlink:href="BE12222.png"  transform="matrix(8.428983e-02 0 0 8.428983e-02 1153.0348 621.0499)">
			</image>
		</g>
	</g>
	<g>
		<g>
			
				<image style="overflow:visible;enable-background:new    ;" width="507" height="130" xlink:href="BE12220.png"  transform="matrix(8.354203e-02 0 0 8.354203e-02 1153.1823 539.1556)">
			</image>
		</g>
	</g>
	<g>
		<g>
			
				<image style="overflow:visible;enable-background:new    ;" width="571" height="44" xlink:href="B789EFDE.png"  transform="matrix(0.2413 0 0 0.2413 1067.0256 692.2833)">
			</image>
		</g>
	</g>
	<path class="st2" d="M1204.6,692.4h-137.5c6.9-0.5,33-3.5,46.8-29.7c1.7-3.3,3.4-7.3,4.8-12.1c11.7,0,23.3,0,35,0
		c1.1,4.3,2.4,7.9,3.9,11.1C1170.4,688.8,1198.2,691.9,1204.6,692.4z"/>
	<g>
		<g>
			
				<image style="overflow:visible;enable-background:new    ;" width="424" height="504" xlink:href="B789EFDA.png"  transform="matrix(5.274914e-02 0 0 5.274914e-02 987.097 508.081)">
			</image>
		</g>
	</g>
	<g>
		<g>
			
				<image style="overflow:visible;enable-background:new    ;" width="510" height="264" xlink:href="B789EFC5.png"  transform="matrix(9.424879e-02 0 0 9.424879e-02 974.2465 489.9596)">
			</image>
		</g>
	</g>
	<g>
		<g>
			
				<image style="overflow:visible;enable-background:new    ;" width="424" height="497" xlink:href="B789EFC6.png"  transform="matrix(5.318040e-02 0 0 5.318040e-02 987.0056 634.7756)">
			</image>
		</g>
	</g>
	<g>
		<g>
			
				<image style="overflow:visible;enable-background:new    ;" width="510" height="267" xlink:href="B789EFC4.png"  transform="matrix(9.402199e-02 0 0 9.402199e-02 974.3043 654.1492)">
			</image>
		</g>
	</g>
	<rect x="984.2" y="529.8" class="st3" width="28.1" height="111.4"/>
	<polygon class="st2" points="975.4,620.8 964.8,615 964.8,557 975.4,551.2 	"/>
	<path class="st4" d="M1012.3,641.2L1012.3,641.2V529.8l0,0c5.2,0,9.4,4.2,9.4,9.4v92.7C1021.7,637,1017.5,641.2,1012.3,641.2z"/>
	<path class="st4" d="M984.2,641.2L984.2,641.2c-5.2,0-9.4-4.2-9.4-9.4v-92.7c0-5.2,4.2-9.4,9.4-9.4l0,0V641.2z"/>
</g>
<g>
	<g>
		<g>
			
				<image style="overflow:visible;enable-background:new    ;" width="2862" height="1057" xlink:href="B789EFC8.png"  transform="matrix(0.2401 0 0 0.2401 175.9855 548.2992)">
			</image>
		</g>
	</g>
</g>
<rect id="Mercury_Left" x="816.7" y="160.3" class="st1" width="6.9" height="37"/>
<g>
	<g>
		
			<image style="overflow:visible;enable-background:new    ;" width="238" height="512" xlink:href="B789EFC1.png"  transform="matrix(0.3694 0 0 0.3694 815.4481 56.5045)">
		</image>
	</g>
</g>
<g>
	<g>
		
			<image style="overflow:visible;enable-background:new    ;" width="511" height="108" xlink:href="B789EFD0.png"  transform="matrix(0.276 0 0 0.276 849.728 702.5952)">
		</image>
	</g>
</g>
<g>
	<g>
		
			<image style="overflow:visible;enable-background:new    ;" width="510" height="189" xlink:href="B789EFD6.png"  transform="matrix(0.1588 0 0 0.1588 914.5914 39.7502)">
		</image>
	</g>
</g>
<g>
	<g>
		
			<image style="overflow:visible;enable-background:new    ;" width="512" height="189" xlink:href="B789EFC3.png"  transform="matrix(0.1583 0 0 0.1583 724.7507 39.802)">
		</image>
	</g>
</g>
<g>
	<g>
		
			<image style="overflow:visible;enable-background:new    ;" width="508" height="189" xlink:href="B789EFBB.png"  transform="matrix(0.1594 0 0 0.1594 832.3126 39.6985)">
		</image>
	</g>
</g>
<g>
	<g>
		
			<image style="overflow:visible;enable-background:new    ;" width="505" height="266" xlink:href="B789EFBC.png"  transform="matrix(6.115601e-02 0 0 6.115601e-02 803.5718 46.8401)">
		</image>
	</g>
</g>
<g>
	<g>
		
			<image style="overflow:visible;enable-background:new    ;" width="511" height="34" xlink:href="B789EFBD.png"  transform="matrix(0.9216 0 0 0.9216 253.4421 37.8475)">
		</image>
	</g>
</g>
<rect id="Water_1" x="849.8" y="707.6" class="st0" width="140.1" height="19.4"/>
<rect id="Water_2_00000178177592295888132300000003812885317886448053_" x="988.2" y="679.1" class="st0" width="19.8" height="22.6"/>
<rect id="Water_3" x="988.2" y="260" class="st0" width="19.8" height="230"/>
<rect id="Water_4_00000018221326492914578470000014473808141724045220_" x="988.2" y="60.7" class="st0" width="19.8" height="191.7"/>
<ellipse id="Suction_Pipe_Opening" class="st0" cx="849.8" cy="717.3" rx="2.9" ry="9.7"/>
<circle id="Suction_Pipe_Corner" class="st5" cx="995.6" cy="714.7" r="17.4"/>
<g>
	<g>
		
			<image style="overflow:visible;enable-background:new    ;" width="662" height="218" xlink:href="B789F019.png"  transform="matrix(0.9982 0 0 0.9982 176.6515 584.7543)">
		</image>
	</g>
</g>
<rect id="Water_8_00000181053212070445114170000008715850457176008092_" x="245.2" y="90.7" class="st0" width="18.7" height="433"/>
<rect id="Water_7_00000154414897353839577140000002405472591546814366_" x="245.2" y="58.7" class="st0" width="18.7" height="75.4"/>
<g id="Manometer_Scale_00000043417524155707118920000015404075486210264251_">
	<g>
		<g>
			
				<image style="overflow:visible;enable-background:new    ;" width="88" height="510" xlink:href="B789F061.png"  transform="matrix(0.2923 0 0 0.2923 845.5511 69.3592)">
			</image>
		</g>
	</g>
	<g>
		<g id="Manometer_Scale">
			<g>
				<line class="st6" x1="846.4" y1="156.1" x2="868.8" y2="156.1"/>
				<line class="st6" x1="846.4" y1="162.8" x2="868.8" y2="162.8"/>
				<line class="st6" x1="846.4" y1="169.5" x2="868.8" y2="169.5"/>
				<line class="st6" x1="846.4" y1="176.2" x2="868.8" y2="176.2"/>
				<line class="st6" x1="846.4" y1="182.9" x2="868.8" y2="182.9"/>
				<line class="st6" x1="846.4" y1="189.6" x2="868.8" y2="189.6"/>
				<line class="st6" x1="846.4" y1="196.3" x2="868.8" y2="196.3"/>
				<line class="st6" x1="846.4" y1="203" x2="868.8" y2="203"/>
				<line class="st6" x1="846.4" y1="209.7" x2="868.8" y2="209.7"/>
				<g>
					<rect x="846.5" y="70.3" class="st6" width="22.3" height="147.4"/>
					<line class="st6" x1="846.4" y1="77.8" x2="868.8" y2="77.8"/>
					<line class="st6" x1="846.4" y1="84.1" x2="868.8" y2="84.1"/>
					<line class="st6" x1="846.4" y1="90.3" x2="868.8" y2="90.3"/>
					<line class="st6" x1="846.4" y1="96.6" x2="868.8" y2="96.6"/>
					<line class="st6" x1="846.4" y1="102.8" x2="868.8" y2="102.8"/>
					<line class="st6" x1="846.4" y1="109.1" x2="868.8" y2="109.1"/>
					<line class="st6" x1="846.4" y1="115.8" x2="868.8" y2="115.8"/>
					<line class="st6" x1="846.4" y1="122.5" x2="868.8" y2="122.5"/>
					<line class="st6" x1="846.4" y1="129.2" x2="868.8" y2="129.2"/>
					<line class="st6" x1="846.4" y1="135.9" x2="868.8" y2="135.9"/>
					<line class="st6" x1="846.4" y1="142.6" x2="868.8" y2="142.6"/>
					<line class="st6" x1="846.4" y1="149.4" x2="868.8" y2="149.4"/>
					<rect x="852.7" y="71.1" class="st7" width="9.8" height="144.8"/>
					<text transform="matrix(1.1057 0 0 1 853.8818 79.2319)" class="st8 st9 st10">100</text>
					<text transform="matrix(1.1057 0 0 1 853.8809 211.5278)" class="st8 st9 st10">100</text>
					<text transform="matrix(1.144 0 0 1 855.9238 85.0981)" class="st8 st9 st11">90</text>
					<text transform="matrix(1.0581 0 0 1 856.0801 91.3042)" class="st8 st9 st12">80</text>
					<text transform="matrix(1.0581 0 0 1 856.1113 97.7358)" class="st8 st9 st12">70</text>
					<text transform="matrix(1.0581 0 0 1 856.1113 103.8228)" class="st8 st9 st12">60</text>
					<text transform="matrix(1.0581 0 0 1 856.1113 110.478)" class="st8 st9 st12">50</text>
					<text transform="matrix(1.0581 0 0 1 856.3535 117.4946)" class="st8 st9 st12">40</text>
					<text transform="matrix(1.0581 0 0 1 856.1113 123.6978)" class="st8 st9 st12">30</text>
					<text transform="matrix(1.0581 0 0 1 856.1113 130.2925)" class="st8 st9 st12">20</text>
					<text transform="matrix(1.0581 0 0 1 856.1113 137.0024)" class="st8 st9 st12">10</text>
					<text transform="matrix(1.0581 0 0 1 857.2568 144.0308)" class="st8 st9 st12">0</text>
					<text transform="matrix(1.0581 0 0 1 856.1113 150.7769)" class="st8 st9 st12">10</text>
					<text transform="matrix(1.0581 0 0 1 856.29 157.3403)" class="st8 st9 st12">20</text>
					<text transform="matrix(1.0581 0 0 1 856.1113 177.4575)" class="st8 st9 st12">50</text>
					<text transform="matrix(1.0581 0 0 1 855.9238 184.2769)" class="st8 st9 st12">60</text>
					<text transform="matrix(1.0581 0 0 1 855.9238 191.0942)" class="st8 st9 st12">70</text>
					<text transform="matrix(1.0581 0 0 1 855.9238 197.6929)" class="st8 st9 st12">80</text>
					<text transform="matrix(1.0581 0 0 1 855.9238 204.3989)" class="st8 st9 st12">90</text>
					<text transform="matrix(1.0581 0 0 1 856.1113 170.6548)" class="st8 st9 st12">40</text>
					<text transform="matrix(1.0581 0 0 1 856.1113 164.0649)" class="st8 st9 st12">30</text>
				</g>
			</g>
		</g>
		<text transform="matrix(0.9985 0 0 1 853.2988 74.3608)" class="st8 st9 st13">mm Hg</text>
	</g>
</g>
<g id="Pressure_Reading">
	<g>
		<g>
			
				<image style="overflow:visible;enable-background:new    ;" width="506" height="139" xlink:href="B789F01C.png"  transform="matrix(0.1008 0 0 0.1008 198.8559 303.1523)">
			</image>
		</g>
	</g>
	<g id="Fringe_2_00000112622058946311706200000016325904198235335051_">
		<g>
			
				<image style="overflow:visible;enable-background:new    ;" width="328" height="505" xlink:href="../Venturimeter Exp/C52FA757.png"  transform="matrix(-5.787439e-02 0 0 -5.787439e-02 208.2734 324.7718)">
			</image>
		</g>
	</g>
	<g>
		<g>
			
				<image style="overflow:visible;enable-background:new    ;" width="288" height="508" xlink:href="B789F02A.png"  transform="matrix(5.909139e-02 0 0 5.909139e-02 185.3692 295.1493)">
			</image>
		</g>
	</g>
	<g>
		<g>
			
				<image style="overflow:visible;enable-background:new    ;" width="509" height="92" xlink:href="B789F02B.png"  transform="matrix(0.1514 0 0 0.1514 116.8664 303.1962)">
			</image>
		</g>
	</g>
	<g id="Pressure_Gauge">
		<g>
			<g>
				
					<image style="overflow:visible;enable-background:new    ;" width="505" height="511" xlink:href="B789F066.png"  transform="matrix(8.774594e-18 -0.1433 0.1433 8.774594e-18 50.2247 345.9624)">
				</image>
			</g>
		</g>
		<g>
			<g>
				
					<image style="overflow:visible;enable-background:new    ;" width="510" height="478" xlink:href="B789F079.png"  transform="matrix(1.058707e-17 -0.1729 0.1729 1.058707e-17 45.1511 354.2391)">
				</image>
			</g>
		</g>
		<g>
			<line class="st14" x1="86.1" y1="278.2" x2="86.1" y2="284.6"/>
			<line class="st14" x1="96.6" y1="279.8" x2="94.7" y2="285.9"/>
			<line class="st14" x1="105.9" y1="284.4" x2="102.1" y2="289.6"/>
			<line class="st14" x1="113.1" y1="291.5" x2="108" y2="295.4"/>
			<line class="st14" x1="117.9" y1="300.4" x2="111.8" y2="302.5"/>
			<line class="st14" x1="119.6" y1="310.8" x2="113.1" y2="310.8"/>
			<line class="st14" x1="117.9" y1="321" x2="111.8" y2="318.9"/>
			<line class="st14" x1="113.1" y1="330" x2="107.9" y2="326.1"/>
			<line class="st14" x1="105.9" y1="337" x2="102.1" y2="331.7"/>
			<line class="st14" x1="96.7" y1="341.6" x2="94.7" y2="335.5"/>
			<line class="st14" x1="86.1" y1="343.3" x2="86.1" y2="336.7"/>
			<line class="st14" x1="75.6" y1="341.6" x2="77.6" y2="335.4"/>
			<line class="st14" x1="66.4" y1="337.1" x2="70.1" y2="331.7"/>
			<line class="st14" x1="59.1" y1="330" x2="64.3" y2="326.1"/>
			<line class="st14" x1="54.3" y1="321" x2="60.6" y2="318.9"/>
			<line class="st14" x1="52.6" y1="310.8" x2="59.2" y2="310.8"/>
		</g>
		<g>
			<line class="st14" x1="86.1" y1="278.2" x2="86.1" y2="284.6"/>
			<line class="st14" x1="77.3" y1="279.3" x2="78.9" y2="285.5"/>
			<line class="st14" x1="69.3" y1="282.6" x2="72.5" y2="288.2"/>
			<line class="st14" x1="62.5" y1="287.6" x2="67" y2="292.3"/>
			<line class="st14" x1="57.2" y1="294.2" x2="62.8" y2="297.6"/>
			<line class="st14" x1="53.8" y1="302" x2="60.1" y2="303.8"/>
			<line class="st14" x1="52.6" y1="310.8" x2="59.2" y2="310.8"/>
		</g>
		<polygon class="st15" points="85,311.8 97.1,324 95.5,325.7 102.5,327.2 100.8,320.2 99,322.1 86.8,309.9 		"/>
		<circle class="st16" cx="85.9" cy="310.8" r="3.4"/>
	</g>
</g>
<circle id="Pressure_Pipe_Corner" class="st5" cx="254.1" cy="310.4" r="14.1"/>
<g>
	<g>
		
			<image style="overflow:visible;enable-background:new    ;" width="512" height="177" xlink:href="B789F020.png"  transform="matrix(0.225 0 0 0.225 34.7503 392.533)">
		</image>
	</g>
</g>
<path class="st17" d="M136.1,429.3H47.3c-5.4,0-9.8-4.3-9.8-9.7v-10.2c0-5.3,4.3-9.7,9.8-9.7H136c5.4,0,9.8,4.3,9.8,9.7v10.2
	C145.8,424.9,141.5,429.3,136.1,429.3z"/>
<text transform="matrix(0.9229 0 0 1 47.252 419.834)" class="st9 st18">100 kg/cm^2</text>
<text transform="matrix(1.0397 0 0 1 771.1367 114.6099)" class="st19 st20">h1</text>
<g>
	<g>
		
			<image style="overflow:visible;enable-background:new    ;" width="505" height="446" xlink:href="B789F039.png"  transform="matrix(0.1106 0 0 0.1106 750.2334 123.5808)">
		</image>
	</g>
</g>
<path class="st17" d="M792.6,167.9h-29.2c-4.7,0-8.6-3.8-8.6-8.6v-18.8c0-4.7,3.8-8.6,8.6-8.6h29.2c4.7,0,8.6,3.8,8.6,8.6v18.8
	C801.1,164.1,797.3,167.9,792.6,167.9z"/>
<text transform="matrix(1.0849 0 0 1 763.7197 148.6812)" class="st9 st21">100</text>
<text transform="matrix(1.0849 0 0 1 765.5146 162.2749)" class="st9 st21">mm</text>
<text transform="matrix(1.0397 0 0 1 931.6592 114.4609)" class="st19 st20">h2</text>
<g>
	<g>
		
			<image style="overflow:visible;enable-background:new    ;" width="510" height="445" xlink:href="B789F03A.png"  transform="matrix(0.1101 0 0 0.1101 911.6088 123.5997)">
		</image>
	</g>
</g>
<path class="st17" d="M954.1,167.8h-29.2c-4.7,0-8.6-3.8-8.6-8.6v-18.8c0-4.7,3.8-8.6,8.6-8.6h29.2c4.7,0,8.6,3.8,8.6,8.6v18.8
	C962.7,163.9,958.8,167.8,954.1,167.8z"/>
<text transform="matrix(1.0849 0 0 1 925.2422 148.5322)" class="st9 st21">100</text>
<text transform="matrix(1.0849 0 0 1 927.0371 162.126)" class="st9 st21">mm</text>
<text transform="matrix(1.0397 0 0 1 63.0996 381.8086)" class="st19 st22">Pressure</text>
<text transform="matrix(1.0397 0 0 1 302.1943 106.2002)" class="st19 st22">Flow Control</text>
<text transform="matrix(1.0397 0 0 1 401.9282 236.96)" class="st19 st22">Handle to </text>
<text transform="matrix(1.0397 0 0 1 387.8926 255.46)" class="st19 st22">Control Vanes</text>
<text transform="matrix(1.0397 0 0 1 328.187 124.7002)" class="st19 st22">Valve</text>
<text transform="matrix(1.0397 0 0 1 1070.4961 244.8501)" class="st19 st22">Flow Opening</text>
<text transform="matrix(1.0397 0 0 1 1099.1914 263.3501)" class="st19 st22">Valve</text>
<rect id="Water_6_00000168117311549382392820000000397660189640725679_" x="257.1" y="44.8" class="st0" width="447.6" height="19.4"/>
<polygon id="Verturimeter_Water_Right" class="st0" points="878.3,62.7 834.4,60 834.4,49.7 878.4,47.2 "/>
<g id="Venturimeter_Flanges_Right">
	<g>
		<g>
			
				<image style="overflow:visible;enable-background:new    ;" width="399" height="509" xlink:href="B789F04E.png"  transform="matrix(8.821183e-02 0 0 8.821183e-02 872.9091 30.6892)">
			</image>
		</g>
	</g>
	<g>
		<g>
			
				<image style="overflow:visible;enable-background:new    ;" width="399" height="510" xlink:href="B789F0EC.png"  transform="matrix(8.810458e-02 0 0 8.810458e-02 885.9382 30.7857)">
			</image>
		</g>
	</g>
</g>
<ellipse id="Suction_Pipe_Opening_00000017507933031533233400000005167268999278761121_" class="st0" cx="910.8" cy="54.8" rx="3.4" ry="10"/>
<circle id="Suction_Pipe_Corner_00000054262970459153180510000014349526325921140145_" class="st5" cx="257.3" cy="56.6" r="17.4"/>
<rect id="Water_5_00000121246892066337760400000013494994064657416380_" x="910.5" y="44.9" class="st0" width="78.7" height="19.9"/>
<rect id="Verturimeter_Water_Left" x="803.4" y="49.7" class="st0" width="31" height="10.3"/>
<g id="Venturimeter_Flanges_Left">
	<g>
		<g>
			
				<image style="overflow:visible;enable-background:new    ;" width="390" height="509" xlink:href="B789F0ED.png"  transform="matrix(8.897027e-02 0 0 8.897027e-02 696.3505 30.4962)">
			</image>
		</g>
	</g>
	<g>
		<g>
			
				<image style="overflow:visible;enable-background:new    ;" width="392" height="509" xlink:href="B789F0EE.png"  transform="matrix(8.880155e-02 0 0 8.880155e-02 709.4805 30.5391)">
			</image>
		</g>
	</g>
</g>
<ellipse id="Suction_Pipe_Opening_00000095319132878784498700000014069824642675118511_" class="st0" cx="735.3" cy="54.5" rx="3.9" ry="9.1"/>
<polygon id="Water_4_00000046320982811315112380000003719977335309594753_" class="st0" points="803.4,60 735.3,63.5 735.3,45.5 
	803.4,49.7 "/>
<circle id="Suction_Pipe_Corner_00000035518070580283282220000008639339393854298022_" class="st5" cx="994.6" cy="58.3" r="17.4"/>
<g id="Flow_valve">
	<g>
		<g>
			
				<image style="overflow:visible;enable-background:new    ;" width="510" height="390" xlink:href="B789F0F6.png"  transform="matrix(0.12 0 0 0.12 971.6897 230.4394)">
			</image>
		</g>
	</g>
	<g>
		<g>
			
				<image style="overflow:visible;enable-background:new    ;" width="504" height="230" xlink:href="B789F0FB.png"  transform="matrix(4.362986e-02 0 0 4.362986e-02 1026.6189 248.822)">
			</image>
		</g>
	</g>
	<g>
		<g>
			
				<image style="overflow:visible;enable-background:new    ;" width="281" height="511" xlink:href="B789F0FC.png"  transform="matrix(8.215453e-02 0 0 8.215453e-02 1036.8751 232.8095)">
			</image>
		</g>
	</g>
</g>
<g id="Flow_valve_00000115508738113360649200000008848507824959791806_">
	<g>
		<g>
			
				<image style="overflow:visible;enable-background:new    ;" width="510" height="390" xlink:href="B789F0F6.png"  transform="matrix(-0.1067 0 0 -0.1067 280.9875 132.2967)">
			</image>
		</g>
	</g>
	<g>
		<g>
			
				<image style="overflow:visible;enable-background:new    ;" width="504" height="230" xlink:href="B789F0FB.png"  transform="matrix(-3.881671e-02 0 0 -3.881671e-02 232.1179 115.9421)">
			</image>
		</g>
	</g>
	<g>
		<g>
			
				<image style="overflow:visible;enable-background:new    ;" width="281" height="511" xlink:href="B789F0FC.png"  transform="matrix(-7.309142e-02 0 0 -7.309142e-02 222.9931 130.1881)">
			</image>
		</g>
	</g>
</g>
<g id="Arrows">
	<g id="Arrow_1">
		<rect x="996.7" y="426.2" class="st23" width="3.2" height="15.8"/>
		<polyline class="st23" points="992.3,426.2 998.3,418 1004.3,426.2 		"/>
	</g>
	<g id="Arrow_2">
		<rect x="996.7" y="343.2" class="st23" width="3.2" height="15.8"/>
		<polyline class="st23" points="992.3,343.2 998.3,335 1004.3,343.2 		"/>
	</g>
	<g id="Arrow_6">
		<rect x="656.1" y="53.1" class="st23" width="15.8" height="3.2"/>
		<polyline class="st23" points="656.1,60.7 647.9,54.7 656.1,48.7 		"/>
	</g>
	<g id="Arrow_7">
		<rect x="573.1" y="53.1" class="st23" width="15.8" height="3.2"/>
		<polyline class="st23" points="573.1,60.7 564.9,54.7 573.1,48.7 		"/>
	</g>
	<g id="Arrow_9_00000020365401400691123350000005359403510993090479_">
		<rect x="399.3" y="55.1" class="st23" width="15.8" height="3.2"/>
		<polyline class="st23" points="399.3,62.7 391.1,56.7 399.3,50.7 		"/>
	</g>
	<g id="Arrow_10">
		<rect x="316.3" y="55.1" class="st23" width="15.8" height="3.2"/>
		<polyline class="st23" points="316.3,62.7 308.1,56.7 316.3,50.7 		"/>
	</g>
	<g id="Arrow_3">
		<rect x="996.7" y="190.8" class="st23" width="3.2" height="15.8"/>
		<polyline class="st23" points="992.3,190.8 998.3,182.6 1004.3,190.8 		"/>
	</g>
	<g id="Arrow_11">
		<rect x="253.4" y="148.4" class="st23" width="3.2" height="15.8"/>
		<polyline class="st23" points="261,164.2 255,172.4 249,164.2 		"/>
	</g>
	<g id="Arrow_11_00000116232616475091402790000009925827224194106279_">
		<rect x="253.4" y="225.2" class="st23" width="3.2" height="15.8"/>
		<polyline class="st23" points="261,241 255,249.2 249,241 		"/>
	</g>
	<g id="Arrow_11_00000010269655190780617440000017273884049865363610_">
		<rect x="253.4" y="351.1" class="st23" width="3.2" height="15.8"/>
		<polyline class="st23" points="261,366.9 255,375.1 249,366.9 		"/>
	</g>
	<g id="Arrow_11_00000000923252075853559030000016158566633737954217_">
		<rect x="253.4" y="440.2" class="st23" width="3.2" height="15.8"/>
		<polyline class="st23" points="261,456 255,464.2 249,456 		"/>
	</g>
	<g id="Arrow_4">
		<rect x="996.7" y="107.8" class="st23" width="3.2" height="15.8"/>
		<polyline class="st23" points="992.3,107.8 998.3,99.6 1004.3,107.8 		"/>
	</g>
	<g id="Arrow_5">
		<rect x="943.9" y="53.5" class="st23" width="15.8" height="3.2"/>
		<polyline class="st23" points="943.9,61.1 935.7,55.1 943.9,49.1 		"/>
	</g>
	<g id="Arrow_8">
		<rect x="485.1" y="53.5" class="st23" width="15.8" height="3.2"/>
		<polyline class="st23" points="485.1,61.1 476.9,55.1 485.1,49.1 		"/>
	</g>
</g>
<line class="st24" x1="579.9" y1="218.2" x2="583.8" y2="342.6"/>
<g>
	<g>
		
			<image style="overflow:visible;enable-background:new    ;" width="513" height="498" xlink:href="B789F004.png"  transform="matrix(0.1643 0 0 0.1643 580.1895 297.1019)">
		</image>
	</g>
</g>
<g>
	<g>
		
			<image style="overflow:visible;enable-background:new    ;" width="460" height="514" xlink:href="B789F005.png"  transform="matrix(0.5413 0 0 0.5413 501.7195 204.2867)">
		</image>
	</g>
</g>
<g>
	<g>
		
			<image style="overflow:visible;enable-background:new    ;" width="512" height="401" xlink:href="46C883A1.png"  transform="matrix(0.3362 0 0 0.3362 455.6969 330.7446)">
		</image>
	</g>
</g>
<path class="st24" d="M645.5,363.1"/>
<g>
	<path class="st24" d="M654.4,219.1l3.8,123.4c0.1,3.5-0.1,9.9-3.3,16.9c-2.2,4.9-8.4,8.5-11.2,10.3"/>
	<path class="st25" d="M644.6,370.9c-0.3,0.1-1.6,0.4-2.8,0.2c-0.7-0.1-1.3-0.4-1.4-0.4c-0.3-0.1-0.1,0-0.2-0.1
		c0.6-0.4,2.3-1.9,2.9-2.3C644.1,368.9,644.6,370,644.6,370.9z"/>
</g>
<g id="Weight1_Gauge">
	<g>
		<g>
			
				<image style="overflow:visible;enable-background:new    ;" width="493" height="503" xlink:href="B789F07A.png"  transform="matrix(8.939152e-02 0 0 8.939152e-02 559.5707 241.7308)">
			</image>
		</g>
	</g>
	<g>
		<g>
			
				<image style="overflow:visible;enable-background:new    ;" width="504" height="488" xlink:href="B789F078.png"  transform="matrix(0.1029 0 0 0.1029 555.4382 238.8728)">
			</image>
		</g>
	</g>
	<g>
		<line class="st14" x1="600" y1="264.1" x2="596.4" y2="264.1"/>
		<line class="st14" x1="599.1" y1="270.3" x2="595.6" y2="269.3"/>
		<line class="st14" x1="596.5" y1="275.8" x2="593.4" y2="273.7"/>
		<line class="st14" x1="592.5" y1="280.1" x2="590.2" y2="277.2"/>
		<line class="st14" x1="587.3" y1="283" x2="586.1" y2="279.5"/>
		<line class="st14" x1="581.4" y1="284" x2="581.4" y2="280.3"/>
		<line class="st14" x1="575.4" y1="283" x2="576.7" y2="279.5"/>
		<line class="st14" x1="570.2" y1="280.2" x2="572.6" y2="277.2"/>
		<line class="st14" x1="566.2" y1="275.8" x2="569.3" y2="273.7"/>
		<line class="st14" x1="563.5" y1="270.4" x2="567.2" y2="269.2"/>
		<line class="st14" x1="562.6" y1="264.1" x2="566.4" y2="264.1"/>
		<line class="st14" x1="563.5" y1="257.8" x2="567.2" y2="258.9"/>
		<line class="st14" x1="566.2" y1="252.3" x2="569.4" y2="254.5"/>
		<line class="st14" x1="570.2" y1="248" x2="572.6" y2="251"/>
		<line class="st14" x1="575.4" y1="245.1" x2="576.7" y2="248.8"/>
		<line class="st14" x1="581.4" y1="244" x2="581.4" y2="248"/>
	</g>
	<g>
		<line class="st14" x1="600" y1="264.1" x2="596.4" y2="264.1"/>
		<line class="st14" x1="599.4" y1="258.8" x2="595.8" y2="259.7"/>
		<line class="st14" x1="597.6" y1="254.1" x2="594.3" y2="255.9"/>
		<line class="st14" x1="594.7" y1="250" x2="591.9" y2="252.6"/>
		<line class="st14" x1="590.9" y1="246.9" x2="588.8" y2="250.1"/>
		<line class="st14" x1="586.4" y1="244.8" x2="585.3" y2="248.5"/>
		<line class="st14" x1="581.4" y1="244" x2="581.4" y2="248"/>
	</g>
	<polygon class="st15" points="581.6,263.2 574.2,255.8 575.3,254.8 571,253.9 572,258.1 573.2,257 580.5,264.3 	"/>
	<path class="st16" d="M581,261.6c1.2,0,2.1,0.9,2.1,2.1s-0.9,2.1-2.1,2.1c-1.2,0-2.1-0.9-2.1-2.1S579.8,261.6,581,261.6z"/>
</g>
<g id="Weight_2_Gauge">
	<g>
		<g>
			
				<image style="overflow:visible;enable-background:new    ;" width="497" height="503" xlink:href="B789F055.png"  transform="matrix(8.903684e-02 0 0 8.903684e-02 633.7781 241.82)">
			</image>
		</g>
	</g>
	<g>
		<g>
			
				<image style="overflow:visible;enable-background:new    ;" width="506" height="488" xlink:href="B789F05B.png"  transform="matrix(0.1027 0 0 0.1027 629.6866 238.9242)">
			</image>
		</g>
	</g>
	<g>
		<line class="st14" x1="674.3" y1="264.1" x2="670.7" y2="264.1"/>
		<line class="st14" x1="673.4" y1="270.3" x2="669.9" y2="269.3"/>
		<line class="st14" x1="670.8" y1="275.8" x2="667.7" y2="273.7"/>
		<line class="st14" x1="666.8" y1="280.1" x2="664.5" y2="277.2"/>
		<line class="st14" x1="661.6" y1="283" x2="660.4" y2="279.5"/>
		<line class="st14" x1="655.7" y1="284" x2="655.7" y2="280.3"/>
		<line class="st14" x1="649.7" y1="283" x2="651" y2="279.5"/>
		<line class="st14" x1="644.5" y1="280.2" x2="646.9" y2="277.2"/>
		<line class="st14" x1="640.5" y1="275.8" x2="643.6" y2="273.7"/>
		<line class="st14" x1="637.8" y1="270.4" x2="641.5" y2="269.2"/>
		<line class="st14" x1="636.9" y1="264.1" x2="640.7" y2="264.1"/>
		<line class="st14" x1="637.8" y1="257.8" x2="641.5" y2="258.9"/>
		<line class="st14" x1="640.5" y1="252.3" x2="643.7" y2="254.5"/>
		<line class="st14" x1="644.5" y1="248" x2="646.9" y2="251"/>
		<line class="st14" x1="649.7" y1="245.1" x2="651" y2="248.8"/>
		<line class="st14" x1="655.7" y1="244" x2="655.7" y2="248"/>
	</g>
	<g>
		<line class="st14" x1="674.3" y1="264.1" x2="670.7" y2="264.1"/>
		<line class="st14" x1="673.7" y1="258.8" x2="670.1" y2="259.7"/>
		<line class="st14" x1="671.9" y1="254.1" x2="668.6" y2="255.9"/>
		<line class="st14" x1="669" y1="250" x2="666.2" y2="252.6"/>
		<line class="st14" x1="665.2" y1="246.9" x2="663.1" y2="250.1"/>
		<line class="st14" x1="660.7" y1="244.8" x2="659.6" y2="248.5"/>
		<line class="st14" x1="655.7" y1="244" x2="655.7" y2="248"/>
	</g>
	<polygon class="st15" points="655.9,263.2 648.5,255.8 649.6,254.8 645.3,253.9 646.3,258.1 647.5,257 654.8,264.3 	"/>
	<circle class="st16" cx="655.3" cy="263.7" r="2.1"/>
</g>
<text transform="matrix(1.0397 0 0 1 542.4346 149.1401)" class="st19 st20">Weight 1</text>
<text transform="matrix(1.0397 0 0 1 637.0088 149.9609)" class="st19 st20">Weight 2</text>
<text transform="matrix(1.0397 0 0 1 536.2051 241.8198)" class="st19 st26">W1</text>
<text transform="matrix(1.0397 0 0 1 682.7578 251.2168)" class="st19 st26">W2</text>
<g>
	<g>
		
			<image style="overflow:visible;enable-background:new    ;" width="507" height="265" xlink:href="B789F021.png"  transform="matrix(0.14 0 0 0.14 537.1269 162.6464)">
		</image>
	</g>
</g>
<path class="st17" d="M593.1,195.1h-41.5c-5,0-9-4-9-9v-5.2c0-5,4-9,9-9h41.5c5,0,9,4,9,9v5.2C602.1,191,598.1,195.1,593.1,195.1z"
	/>
<text transform="matrix(0.9229 0 0 1 547.4551 189.1377)" class="st9 st27">100 kg</text>
<g>
	<g>
		
			<image style="overflow:visible;enable-background:new    ;" width="507" height="266" xlink:href="B789F038.png"  transform="matrix(0.1399 0 0 0.1399 630.1553 163.5915)">
		</image>
	</g>
</g>
<path class="st17" d="M686.1,196.1h-41.5c-5,0-9-4-9-9v-5.2c0-5,4-9,9-9h41.5c5,0,9,4,9,9v5.2C695.1,192,691.1,196.1,686.1,196.1z"
	/>
<text transform="matrix(0.9229 0 0 1 642.4541 190.1377)" class="st9 st27">100 kg</text>
<text transform="matrix(1.0397 0 0 1 658.1943 401.1904)" class="st19 st20">RPM</text>
<g>
	<g>
		
			<image style="overflow:visible;enable-background:new    ;" width="507" height="266" xlink:href="B789F038.png"  transform="matrix(0.1399 0 0 0.1399 642.5647 411.8207)">
		</image>
	</g>
</g>
<path class="st17" d="M698.5,444.3H657c-5,0-9-4-9-9v-5.2c0-5,4-9,9-9h41.5c5,0,9,4,9,9v5.2C707.5,440.2,703.5,444.3,698.5,444.3z"
	/>
<text transform="matrix(0.9229 0 0 1 658.9531 439.3672)" class="st9 st27">1000</text>
<path class="st0" d="M553.1,458.1c0,55.4-44.9,100.3-100.3,100.3s-100.3-44.9-100.3-100.3"/>
<path class="st0" d="M452.2,558.4H328.3v-49.7c12.5-0.1,25.7-0.2,38.2-0.2c4.3,7.6,10.9,16.6,21.3,25.4
	C413,555.2,441.4,558.1,452.2,558.4z"/>
<linearGradient id="Main_Jet_00000119807876424503938670000011835468649808581286_" gradientUnits="userSpaceOnUse" x1="337.8" y1="-645.35" x2="452.2" y2="-645.35" gradientTransform="matrix(1 0 0 1 0 1176)">
	<stop  offset="4.155676e-07" style="stop-color:#8AE3FF"/>
	<stop  offset="0.167" style="stop-color:#97E6FF"/>
	<stop  offset="0.4748" style="stop-color:#B8EEFF"/>
	<stop  offset="0.8861" style="stop-color:#EFFBFF"/>
	<stop  offset="1" style="stop-color:#FFFFFF"/>
</linearGradient>
<rect id="Main_Jet" x="337.8" y="520.8" style="fill:url(#Main_Jet_00000119807876424503938670000011835468649808581286_);" width="114.4" height="19.7"/>
<g id="Kaplan_Turbine">
	<g>
		<g>
			
				<image style="overflow:visible;enable-background:new    ;" width="508" height="508" xlink:href="2A0E712F.png"  transform="matrix(8.984985e-02 -0.1071 0.1071 8.984985e-02 394.1451 514.1152)">
			</image>
		</g>
	</g>
	<g>
		<g>
			
				<image style="overflow:visible;enable-background:new    ;" width="437" height="513" xlink:href="2A0E7122.png"  transform="matrix(9.536671e-02 -0.1137 0.1137 9.536671e-02 348.6106 447.937)">
			</image>
		</g>
	</g>
	<g>
		<g>
			
				<image style="overflow:visible;enable-background:new    ;" width="511" height="509" xlink:href="2A0E7125.png"  transform="matrix(8.820681e-02 -0.1051 0.1051 8.820681e-02 411.6011 409.6594)">
			</image>
		</g>
	</g>
	<g>
		<g>
			
				<image style="overflow:visible;enable-background:new    ;" width="445" height="513" xlink:href="2A0E7124.png"  transform="matrix(9.527642e-02 -0.1136 0.1136 9.527642e-02 454.1086 468.537)">
			</image>
		</g>
	</g>
	<g>
		<g>
			
				<image style="overflow:visible;enable-background:new    ;" width="507" height="507" xlink:href="2A0E715B.png"  transform="matrix(8.243287e-02 -9.825232e-02 9.825232e-02 8.243287e-02 407.0252 461.1289)">
			</image>
		</g>
	</g>
</g>
<g id="Drops" class="st29">
	
		<radialGradient id="Drop_11_00000016068734128611196100000003998891005782150332_" cx="-3325.2104" cy="1905.4918" r="9.422" gradientTransform="matrix(0.3283 3.244083e-02 4.242862e-02 -0.4294 1436.1146 1445.5116)" gradientUnits="userSpaceOnUse">
		<stop  offset="0.3309" style="stop-color:#51A9F0;stop-opacity:0.462"/>
		<stop  offset="0.9755" style="stop-color:#51A9F0"/>
	</radialGradient>
	
		<path id="Drop_11" style="opacity:0.67;fill:url(#Drop_11_00000016068734128611196100000003998891005782150332_);enable-background:new    ;" d="
		M428.5,519.3c-0.2,1.7-1.9,3.5-3.6,3.3s-2.9-1.9-2.7-4c0.2-2.6,3.8-5.5,3.8-5.5S428.8,516.6,428.5,519.3z"/>
	
		<radialGradient id="Drop_10_00000034071943150621461080000004494313113840037303_" cx="-3087.8206" cy="2109.6594" r="9.422" gradientTransform="matrix(0.3298 9.072594e-03 1.186582e-02 -0.4313 1415.4744 1468.3772)" gradientUnits="userSpaceOnUse">
		<stop  offset="0.3309" style="stop-color:#51A9F0;stop-opacity:0.462"/>
		<stop  offset="0.9755" style="stop-color:#51A9F0"/>
	</radialGradient>
	
		<path id="Drop_10" style="opacity:0.67;fill:url(#Drop_10_00000034071943150621461080000004494313113840037303_);enable-background:new    ;" d="
		M425.4,530.2c-0.1,1.7-1.6,3.6-3.3,3.5c-1.7-0.1-3.1-1.7-3-3.8c0-2.6,3.4-5.8,3.4-5.8S425.5,527.4,425.4,530.2z"/>
	
		<radialGradient id="Drop_9_00000089558806867342969930000013895635893634217658_" cx="-2865.5173" cy="2264.6685" r="9.4128" gradientTransform="matrix(0.3299 -5.544094e-03 -7.251027e-03 -0.4314 1405.6381 1490.0144)" gradientUnits="userSpaceOnUse">
		<stop  offset="0.3309" style="stop-color:#51A9F0;stop-opacity:0.462"/>
		<stop  offset="0.9755" style="stop-color:#51A9F0"/>
	</radialGradient>
	
		<path id="Drop_9" style="opacity:0.67;fill:url(#Drop_9_00000089558806867342969930000013895635893634217658_);enable-background:new    ;" d="
		M447.1,528.5c0,1.7-1.5,3.7-3.2,3.7s-3.1-1.6-3.2-3.7c-0.1-2.6,3.2-5.9,3.2-5.9S447.1,525.7,447.1,528.5z"/>
	
		<radialGradient id="Drop_8_00000019652529002864051740000012554797475257824191_" cx="-2794.7778" cy="2240.7961" r="9.4103" gradientTransform="matrix(0.3299 -5.544094e-03 -7.251027e-03 -0.4314 1405.6381 1490.0144)" gradientUnits="userSpaceOnUse">
		<stop  offset="0.3309" style="stop-color:#51A9F0;stop-opacity:0.462"/>
		<stop  offset="0.9755" style="stop-color:#51A9F0"/>
	</radialGradient>
	
		<path id="Drop_8" style="opacity:0.67;fill:url(#Drop_8_00000019652529002864051740000012554797475257824191_);enable-background:new    ;" d="
		M470.6,538.4c0,1.7-1.5,3.7-3.2,3.7s-3.1-1.6-3.2-3.7c-0.1-2.6,3.2-5.9,3.2-5.9S470.6,535.6,470.6,538.4z"/>
	
		<radialGradient id="Drop_7_00000093864302986421146880000016208887409451242898_" cx="-2815.8835" cy="2257.7542" r="9.4174" gradientTransform="matrix(0.3299 -5.544094e-03 -7.251027e-03 -0.4314 1405.6381 1490.0144)" gradientUnits="userSpaceOnUse">
		<stop  offset="0.3309" style="stop-color:#51A9F0;stop-opacity:0.462"/>
		<stop  offset="0.9755" style="stop-color:#51A9F0"/>
	</radialGradient>
	
		<path id="Drop_7" style="opacity:0.67;fill:url(#Drop_7_00000093864302986421146880000016208887409451242898_);enable-background:new    ;" d="
		M463.5,531.2c0,1.7-1.5,3.7-3.2,3.7s-3.1-1.6-3.2-3.7c-0.1-2.6,3.2-5.9,3.2-5.9S463.5,528.4,463.5,531.2z"/>
	
		<radialGradient id="Drop_6_00000025416247564368725270000014554759771088196488_" cx="-3072.2356" cy="2039.969" r="9.422" gradientTransform="matrix(0.3295 1.735722e-02 2.270110e-02 -0.4309 1419.5189 1458.0548)" gradientUnits="userSpaceOnUse">
		<stop  offset="0.3309" style="stop-color:#51A9F0;stop-opacity:0.462"/>
		<stop  offset="0.9755" style="stop-color:#51A9F0"/>
	</radialGradient>
	
		<path id="Drop_6" style="opacity:0.67;fill:url(#Drop_6_00000025416247564368725270000014554759771088196488_);enable-background:new    ;" d="
		M456.8,525.5c-0.1,1.7-1.7,3.5-3.4,3.4c-1.7-0.1-3-1.8-2.9-3.9c0.1-2.6,3.6-5.7,3.6-5.7S456.9,522.7,456.8,525.5z"/>
	
		<radialGradient id="Drop_5_00000101083445295822684020000002276949276099106731_" cx="-1754.017" cy="2922.0242" r="9.4231" gradientTransform="matrix(0.3179 -8.825833e-02 -0.1154 -0.4158 1359.1233 1581.1013)" gradientUnits="userSpaceOnUse">
		<stop  offset="0.3309" style="stop-color:#51A9F0;stop-opacity:0.462"/>
		<stop  offset="0.9755" style="stop-color:#51A9F0"/>
	</radialGradient>
	
		<path id="Drop_5" style="opacity:0.67;fill:url(#Drop_5_00000101083445295822684020000002276949276099106731_);enable-background:new    ;" d="
		M467.3,519.7c0.4,1.7-0.5,3.9-2.2,4.3c-1.7,0.4-3.4-0.7-4-2.7c-0.7-2.5,1.6-6.5,1.6-6.5S466.6,517,467.3,519.7z"/>
	
		<radialGradient id="Drop_4_00000083787237740296000660000015116855796569288123_" cx="-3240.9834" cy="1920.8771" r="9.4263" gradientTransform="matrix(0.3288 2.761459e-02 3.611648e-02 -0.43 1429.1675 1449.5363)" gradientUnits="userSpaceOnUse">
		<stop  offset="0.3309" style="stop-color:#51A9F0;stop-opacity:0.462"/>
		<stop  offset="0.9755" style="stop-color:#51A9F0"/>
	</radialGradient>
	
		<path id="Drop_4" style="opacity:0.67;fill:url(#Drop_4_00000083787237740296000660000015116855796569288123_);enable-background:new    ;" d="
		M436.1,533.9c-0.2,1.7-1.8,3.5-3.5,3.3s-3-1.9-2.8-4c0.2-2.6,3.8-5.6,3.8-5.6S436.4,531.1,436.1,533.9z"/>
	
		<radialGradient id="Drop_3_00000109012619663144015780000004726527939626245810_" cx="-3090.519" cy="2066.814" r="9.422" gradientTransform="matrix(0.3298 1.056490e-02 1.381758e-02 -0.4313 1416.9193 1464.3127)" gradientUnits="userSpaceOnUse">
		<stop  offset="0.3309" style="stop-color:#51A9F0;stop-opacity:0.462"/>
		<stop  offset="0.9755" style="stop-color:#51A9F0"/>
	</radialGradient>
	
		<path id="Drop_3" style="opacity:0.67;fill:url(#Drop_3_00000109012619663144015780000004726527939626245810_);enable-background:new    ;" d="
		M429.4,539.9c-0.1,1.7-1.6,3.6-3.4,3.5s-3.1-1.7-3-3.8c0.1-2.6,3.5-5.7,3.5-5.7S429.6,537.1,429.4,539.9z"/>
	
		<radialGradient id="Drop_2_00000069390167609006993060000010928267982244712326_" cx="-1753.3658" cy="2929.3259" r="9.4216" gradientTransform="matrix(0.3171 -9.125378e-02 -0.1193 -0.4147 1358.1136 1593.5532)" gradientUnits="userSpaceOnUse">
		<stop  offset="0.3309" style="stop-color:#51A9F0;stop-opacity:0.462"/>
		<stop  offset="0.9755" style="stop-color:#51A9F0"/>
	</radialGradient>
	
		<path id="Drop_2" style="opacity:0.67;fill:url(#Drop_2_00000069390167609006993060000010928267982244712326_);enable-background:new    ;" d="
		M455.6,537.5c0.4,1.7-0.5,3.9-2.1,4.4c-1.7,0.4-3.4-0.7-4-2.7c-0.7-2.5,1.5-6.5,1.5-6.5S454.9,534.8,455.6,537.5z"/>
	
		<radialGradient id="Drop_1_00000079456801635355803210000000740136145648591753_" cx="-3615.3899" cy="1451.5116" r="9.422" gradientTransform="matrix(0.3219 7.227602e-02 9.452819e-02 -0.421 1466.8163 1413.1921)" gradientUnits="userSpaceOnUse">
		<stop  offset="0.3309" style="stop-color:#51A9F0;stop-opacity:0.462"/>
		<stop  offset="0.9755" style="stop-color:#51A9F0"/>
	</radialGradient>
	
		<path id="Drop_1" style="opacity:0.67;fill:url(#Drop_1_00000079456801635355803210000000740136145648591753_);enable-background:new    ;" d="
		M443.5,541.1c-0.4,1.7-2.3,3.2-3.9,2.8c-1.7-0.4-2.7-2.3-2.2-4.3c0.5-2.5,4.5-5,4.5-5S444.1,538.4,443.5,541.1z"/>
</g>
<g class="st41">
	<g>
		
			<image style="overflow:visible;enable-background:new    ;" width="244" height="202" xlink:href="2A0E710A.png"  transform="matrix(0.9956 0 0 0.9956 309.5423 359.4643)">
		</image>
	</g>
</g>
<g>
	<g>
		
			<image style="overflow:visible;enable-background:new    ;" width="512" height="244" xlink:href="46C883F6.png"  transform="matrix(0.1973 0 0 0.1973 445.7661 435.7559)">
		</image>
	</g>
</g>
<g>
	<g>
		
			<image style="overflow:visible;enable-background:new    ;" width="222" height="511" xlink:href="46C883F5.png"  transform="matrix(0.2172 0 0 0.2172 518.8667 457.771)">
		</image>
	</g>
</g>
<rect id="Water_8" x="525.5" y="468.8" class="st0" width="34.9" height="99.5"/>
<rect id="Water_7" x="456.4" y="442.4" class="st0" width="88" height="35.3"/>
<circle id="Tank_Empty_Corner_00000047032647796746933340000001603408743156292488_" class="st42" cx="451.4" cy="459.7" r="24.4"/>
<circle id="Tank_Empty_Corner_00000165940050214422900460000010979325154365749422_" class="st42" cx="540.3" cy="463.8" r="28.5"/>
<g>
	<g>
		
			<image style="overflow:visible;enable-background:new    ;" width="404" height="513" xlink:href="2A0E717A.png"  transform="matrix(0.1253 0 0 0.1253 296.6044 501.8773)">
		</image>
	</g>
</g>
<g>
	<g>
		
			<image style="overflow:visible;enable-background:new    ;" width="405" height="513" xlink:href="2A0E7179.png"  transform="matrix(0.1252 0 0 0.1252 280.6808 501.9078)">
		</image>
	</g>
</g>
<ellipse id="Suction_Pipe_Opening_00000134928347346484084810000016366432531286491792_" class="st0" cx="295.3" cy="533.9" rx="4.9" ry="10.5"/>
<g>
	<g>
		
			<image style="overflow:visible;enable-background:new    ;" width="512" height="244" xlink:href="46C883F6.png"  transform="matrix(7.726242e-02 0 0 0.1163 255.7182 519.7238)">
		</image>
	</g>
</g>
<rect id="Water_7_00000116915602419580169140000007126847451848705453_" x="255.7" y="523.4" class="st0" width="39.6" height="21"/>
<circle id="Tank_Empty_Corner_00000144305212231066817380000008743569582084499366_" class="st42" cx="258.7" cy="528.5" r="20.3"/>
</svg>
