<?xml version="1.0" encoding="utf-8"?>
<!-- Generator: Adobe Illustrator 27.3.1, SVG Export Plug-In . SVG Version: 6.00 Build 0)  -->
<svg version="1.1" id="Layer_1" xmlns="http://www.w3.org/2000/svg" xmlns:xlink="http://www.w3.org/1999/xlink" x="0px" y="0px"
	 viewBox="0 0 1283.7 853.3" style="enable-background:new 0 0 1283.7 853.3;" xml:space="preserve">
<style type="text/css">
	.st0{fill:#1A2D58;}
	.st1{fill:#D1D3D4;}
	.st2{fill:#808285;}
	.st3{fill:#EDED90;stroke:#EFF0A3;stroke-width:3;stroke-miterlimit:10;}
	.st4{fill:#FFFFFF;}
	.st5{opacity:0.88;}
	.st6{fill:none;stroke:#717375;stroke-width:3;stroke-miterlimit:10;}
	.st7{opacity:0.92;enable-background:new    ;}
	.st8{fill:#8AE3FF;}
	.st9{fill:#5B5E1B;}
	.st10{fill:url(#SVGID_1_);}
	.st11{fill:none;stroke:#271D5D;stroke-width:0.75;stroke-miterlimit:10;}
	.st12{fill:#010101;}
	.st13{font-family:'ArialMT';}
	.st14{font-size:4.4897px;}
	.st15{font-size:4.0126px;}
	.st16{font-size:4.0123px;}
	.st17{font-size:3.5335px;}
	.st18{fill:#717375;}
	.st19{fill:#DDEA91;}
	.st20{fill:none;stroke:#231F20;stroke-width:2;stroke-miterlimit:10;}
	.st21{fill:#828487;}
	.st22{fill:#231F20;}
	.st23{fill:#FFFFFF;stroke:#000000;stroke-width:2;stroke-miterlimit:10;}
	.st24{font-size:15.7333px;}
	.st25{font-family:'TimesNewRomanPS-BoldMT';}
	.st26{font-size:15.3965px;}
	.st27{enable-background:new    ;}
	.st28{font-size:17.5978px;}
	.st29{font-size:26.257px;}
	.st30{font-size:32px;}
	.st31{opacity:0.67;fill:url(#path12971_00000116219861758355083850000012317979445668318881_);enable-background:new    ;}
	.st32{opacity:0.67;fill:url(#path12971_00000021079535734351136910000002663416795481142949_);enable-background:new    ;}
	.st33{opacity:0.67;fill:url(#path12971_00000032606287042912427040000013534564209325575306_);enable-background:new    ;}
	.st34{opacity:0.67;fill:url(#path12971_00000035496748372879018760000011953372375787764378_);enable-background:new    ;}
	.st35{opacity:0.67;fill:url(#path12971_00000117667275142948251710000011878557773297169570_);enable-background:new    ;}
	.st36{opacity:0.67;fill:url(#path12971_00000137122084295256498710000014489239511250386844_);enable-background:new    ;}
	.st37{opacity:0.67;fill:url(#path12971_00000058559181478756308670000011026759530685367226_);enable-background:new    ;}
	.st38{opacity:0.67;fill:url(#path12971_00000099639028198218638170000002770370751674605455_);enable-background:new    ;}
	.st39{opacity:0.67;fill:url(#path12971_00000163782975219282066440000017860405036503330999_);enable-background:new    ;}
	.st40{opacity:0.67;fill:url(#path12971_00000012448059212809190510000006242530736472248976_);enable-background:new    ;}
	.st41{opacity:0.67;fill:url(#path12971_00000054988225370446277960000002778026673797328057_);enable-background:new    ;}
	.st42{opacity:0.56;}
</style>
<g>
	<g>
		
			<image style="overflow:visible;enable-background:new    ;" width="54" height="511" xlink:href="../Venturimeter Exp/C52FA6DB.png"  transform="matrix(0.5752 0 0 0.876 985.4172 64.5565)">
		</image>
	</g>
</g>
<g>
	<g>
		
			<image style="overflow:visible;enable-background:new    ;" width="54" height="511" xlink:href="../Venturimeter Exp/C52FA6DB.png"  transform="matrix(0.5752 0 0 8.076043e-02 985.4172 685.8197)">
		</image>
	</g>
</g>
<g>
	<g>
		<g>
			
				<image style="overflow:visible;enable-background:new    ;" width="179" height="509" xlink:href="BE1222C.png"  transform="matrix(0.137 0 0 0.137 1022.4692 562.3933)">
			</image>
		</g>
	</g>
	<g>
		<g>
			
				<image style="overflow:visible;enable-background:new    ;" width="785" height="538" xlink:href="BE1222F.png"  transform="matrix(0.2399 0 0 0.2399 1044.5417 532.7274)">
			</image>
		</g>
	</g>
	<g>
		<g>
			
				<image style="overflow:visible;enable-background:new    ;" width="506" height="134" xlink:href="BE12223.png"  transform="matrix(8.396927e-02 0 0 8.396927e-02 1155.9192 570.7096)">
			</image>
		</g>
	</g>
	<g>
		<g>
			
				<image style="overflow:visible;enable-background:new    ;" width="506" height="127" xlink:href="BE12227.png"  transform="matrix(8.425064e-02 0 0 8.425064e-02 1155.848 591.4291)">
			</image>
		</g>
	</g>
	<g>
		<g>
			
				<image style="overflow:visible;enable-background:new    ;" width="506" height="133" xlink:href="BE12221.png"  transform="matrix(8.401021e-02 0 0 8.401021e-02 1155.9089 611.6359)">
			</image>
		</g>
	</g>
	<g>
		<g>
			
				<image style="overflow:visible;enable-background:new    ;" width="506" height="126" xlink:href="BE12222.png"  transform="matrix(8.428983e-02 0 0 8.428983e-02 1155.8381 632.356)">
			</image>
		</g>
	</g>
	<g>
		<g>
			
				<image style="overflow:visible;enable-background:new    ;" width="507" height="130" xlink:href="BE12220.png"  transform="matrix(8.354203e-02 0 0 8.354203e-02 1155.9856 550.4617)">
			</image>
		</g>
	</g>
	<g>
		<g>
			
				<image style="overflow:visible;enable-background:new    ;" width="571" height="44" xlink:href="B789EFDE.png"  transform="matrix(0.2413 0 0 0.2413 1069.829 703.5894)">
			</image>
		</g>
	</g>
	<path class="st0" d="M1207.4,703.7h-137.5c6.9-0.5,33-3.5,46.8-29.7c1.7-3.3,3.4-7.3,4.8-12.1c11.7,0,23.3,0,35,0
		c1.1,4.3,2.4,7.9,3.9,11.1C1173.2,700.1,1201,703.2,1207.4,703.7z"/>
	<g>
		<g>
			
				<image style="overflow:visible;enable-background:new    ;" width="424" height="504" xlink:href="B789EFDA.png"  transform="matrix(5.274914e-02 0 0 5.274914e-02 989.9005 519.3871)">
			</image>
		</g>
	</g>
	<g>
		<g>
			
				<image style="overflow:visible;enable-background:new    ;" width="510" height="264" xlink:href="B789EFC5.png"  transform="matrix(9.424879e-02 0 0 9.424879e-02 977.0499 501.2657)">
			</image>
		</g>
	</g>
	<g>
		<g>
			
				<image style="overflow:visible;enable-background:new    ;" width="424" height="497" xlink:href="B789EFC6.png"  transform="matrix(5.318040e-02 0 0 5.318040e-02 989.809 646.0817)">
			</image>
		</g>
	</g>
	<g>
		<g>
			
				<image style="overflow:visible;enable-background:new    ;" width="510" height="267" xlink:href="B789EFC4.png"  transform="matrix(9.402199e-02 0 0 9.402199e-02 977.1077 665.4552)">
			</image>
		</g>
	</g>
	<rect x="987" y="541.1" class="st1" width="28.1" height="111.4"/>
	<polygon class="st0" points="978.2,632.1 967.6,626.3 967.6,568.3 978.2,562.5 	"/>
	<path class="st2" d="M1015.1,652.5L1015.1,652.5V541.1l0,0c5.2,0,9.4,4.2,9.4,9.4v92.7C1024.5,648.3,1020.3,652.5,1015.1,652.5z"/>
	<path class="st2" d="M987,652.5L987,652.5c-5.2,0-9.4-4.2-9.4-9.4v-92.7c0-5.2,4.2-9.4,9.4-9.4l0,0V652.5z"/>
</g>
<g>
	<g>
		<g>
			
				<image style="overflow:visible;enable-background:new    ;" width="2862" height="1057" xlink:href="B789EFC8.png"  transform="matrix(0.24 0 0 0.24 -387.4043 927.557)">
			</image>
		</g>
	</g>
</g>
<g>
	<g>
		
			<image style="overflow:visible;enable-background:new    ;" width="973" height="1211" xlink:href="B789EFCB.png"  transform="matrix(0.2401 0 0 0.2401 358.3894 290.3904)">
		</image>
	</g>
</g>
<g>
	<g>
		
			<image style="overflow:visible;enable-background:new    ;" width="54" height="511" xlink:href="../Venturimeter Exp/C52FA6DB.png"  transform="matrix(9.985904e-08 0.5752 -0.2818 4.892259e-08 993.3987 713.4808)">
		</image>
	</g>
</g>
<circle id="Suction_Pipe_Corner" class="st3" cx="998.4" cy="726" r="17.4"/>
<ellipse id="Suction_Pipe_Opening" class="st4" cx="852" cy="728.8" rx="3.1" ry="15.4"/>
<g id="Tank_Empty_Control_00000000920067168395717810000001351023711700812424_">
	<g>
		<g>
			
				<image style="overflow:visible;enable-background:new    ;" width="412" height="508" xlink:href="../Venturimeter Exp/C52FA7C7.png"  transform="matrix(-1.939445e-09 9.887402e-02 -9.887402e-02 -1.939445e-09 1025.4393 265.3792)">
			</image>
		</g>
	</g>
	<g>
		<g>
			
				<image style="overflow:visible;enable-background:new    ;" width="168" height="503" xlink:href="../Venturimeter Exp/C52FA7CF.png"  transform="matrix(-7.491270e-10 3.819093e-02 -3.819093e-02 -7.491270e-10 1039.2992 282.5391)">
			</image>
		</g>
	</g>
	<g>
		<g>
			
				<image style="overflow:visible;enable-background:new    ;" width="503" height="188" xlink:href="../Venturimeter Exp/C52FA7C1.png"  transform="matrix(-1.676465e-09 8.546718e-02 -8.546718e-02 -1.676465e-09 1045.2068 264.2522)">
			</image>
		</g>
	</g>
</g>
<g class="st5">
	<g>
		
			<image style="overflow:visible;enable-background:new    ;" width="258" height="511" xlink:href="../Venturimeter Exp/C52FA6DA.png"  transform="matrix(0.3759 0 0 0.3759 814.0314 64.8206)">
		</image>
	</g>
</g>
<g>
	<g>
		
			<image style="overflow:visible;enable-background:new    ;" width="510" height="232" xlink:href="../Venturimeter Exp/C52FA6DE.png"  transform="matrix(6.307670e-02 0 0 6.507149e-02 807.4193 56.8969)">
		</image>
	</g>
</g>
<g>
	<g>
		
			<image style="overflow:visible;enable-background:new    ;" width="510" height="154" xlink:href="../Venturimeter Exp/C52FA743.png"  transform="matrix(0.196 0 0 0.196 712.048 49.4633)">
		</image>
	</g>
</g>
<g>
	<g>
		
			<image style="overflow:visible;enable-background:new    ;" width="513" height="179" xlink:href="../Venturimeter Exp/C52FA74B.png"  transform="matrix(0.1677 0 0 0.1677 836.6288 49.5493)">
		</image>
	</g>
</g>
<image style="overflow:visible;enable-background:new    ;" width="54" height="511" xlink:href="../Venturimeter Exp/C52FA6DB.png"  transform="matrix(5.795048e-08 0.5752 -0.1798 1.811456e-08 997.3737 50.2929)">
</image>
<image style="overflow:visible;enable-background:new    ;" width="54" height="511" xlink:href="../Venturimeter Exp/C52FA6DB.png"  transform="matrix(2.958918e-07 0.5752 -0.9182 4.723363e-07 729.3415 50.1536)">
</image>
<image style="overflow:visible;enable-background:new    ;" width="54" height="511" xlink:href="../Venturimeter Exp/C52FA6DB.png"  transform="matrix(0.5752 0 0 0.8807 241.6732 67.8756)">
</image>
<g id="Fringe_4">
	<g>
		
			<image style="overflow:visible;enable-background:new    ;" width="326" height="505" xlink:href="../Venturimeter Exp/C52FA755.png"  transform="matrix(8.906778e-02 0 0 8.906778e-02 885.147 42.0669)">
		</image>
	</g>
</g>
<g id="Fringe_3">
	<g>
		
			<image style="overflow:visible;enable-background:new    ;" width="324" height="505" xlink:href="../Venturimeter Exp/C52FA756.png"  transform="matrix(8.922845e-02 0 0 8.922845e-02 697.593 41.915)">
		</image>
	</g>
</g>
<g>
	
		<image style="overflow:visible;enable-background:new    ;" width="321" height="505" xlink:href="../Venturimeter Exp/C52FA758.png"  transform="matrix(8.946922e-02 0 0 8.946922e-02 705.9234 41.8542)">
	</image>
</g>
<g id="Fringe_2">
	<g>
		
			<image style="overflow:visible;enable-background:new    ;" width="328" height="505" xlink:href="../Venturimeter Exp/C52FA757.png"  transform="matrix(8.890700e-02 0 0 8.890700e-02 894.3397 42.1074)">
		</image>
	</g>
</g>
<g>
	<g>
		
			<image style="overflow:visible;enable-background:new    ;" width="212" height="510" xlink:href="../Venturimeter Exp/C52FA74F.png"  transform="matrix(0.1413 0 0 0.1413 664.1478 555.158)">
		</image>
	</g>
</g>
<g>
	<g>
		
			<image style="overflow:visible;" width="661" height="217" xlink:href="CF894753.png"  transform="matrix(1 0 0 1 179.3553 596.363)">
		</image>
	</g>
</g>
<circle id="Suction_Pipe_Corner_00000035518070580283282220000008639339393854298022_" class="st3" cx="997.4" cy="69.6" r="17.4"/>
<circle id="Suction_Pipe_Corner_00000054262970459153180510000014349526325921140145_" class="st3" cx="260.1" cy="67.9" r="17.4"/>
<line class="st6" x1="606.8" y1="227.4" x2="610.7" y2="351.8"/>
<g>
	<g>
		
			<image style="overflow:visible;enable-background:new    ;" width="513" height="498" xlink:href="B789F004.png"  transform="matrix(0.1643 0 0 0.1643 607.0835 306.3483)">
		</image>
	</g>
</g>
<g>
	<g>
		
			<image style="overflow:visible;enable-background:new    ;" width="460" height="514" xlink:href="B789F005.png"  transform="matrix(0.5413 0 0 0.5413 528.6136 213.5331)">
		</image>
	</g>
</g>
<g>
	<g>
		
			<image style="overflow:visible;enable-background:new    ;" width="512" height="377" xlink:href="B789F00D.png"  transform="matrix(0.4391 0 0 0.4391 437.9328 332.5236)">
		</image>
	</g>
</g>
<g class="st7">
	<g>
		
			<image style="overflow:visible;enable-background:new    ;" width="1071" height="1244" xlink:href="B789F003.png"  transform="matrix(0.2401 0 0 0.2401 344.2359 289.5865)">
		</image>
	</g>
</g>
<g>
	<g>
		
			<image style="overflow:visible;" width="512" height="357" xlink:href="CF89475E.png"  transform="matrix(0.1348 0 0 0.1348 342.8246 325.8254)">
		</image>
	</g>
</g>
<g>
	<g>
		
			<image style="overflow:visible;" width="512" height="99" xlink:href="CF89475D.png"  transform="matrix(0.2832 0 0 0.2832 267.684 508.899)">
		</image>
	</g>
</g>
<polygon class="st8" points="411.3,527.1 280,531.5 280,513.8 411.1,519.5 "/>
<path class="st9" d="M408.3,522.4L279,518.7v8.3l129.4-3.6C409.3,523.4,409.3,522.4,408.3,522.4z"/>
<g>
	<g>
		
			<image style="overflow:visible;enable-background:new    ;" width="509" height="153" xlink:href="../Venturimeter Exp/C70F2020.png"  transform="matrix(0.1831 0 0 0.1965 585.4394 540.1569)">
		</image>
	</g>
</g>
<circle id="Tank_Empty_Corner" class="st3" cx="675.4" cy="559.2" r="17.4"/>
<linearGradient id="SVGID_1_" gradientUnits="userSpaceOnUse" x1="410.8649" y1="523.2874" x2="472.2905" y2="523.2874">
	<stop  offset="4.155676e-07" style="stop-color:#8AE3FF"/>
	<stop  offset="0.167" style="stop-color:#97E6FF"/>
	<stop  offset="0.4748" style="stop-color:#B8EEFF"/>
	<stop  offset="0.8861" style="stop-color:#EFFBFF"/>
	<stop  offset="1" style="stop-color:#FFFFFF"/>
</linearGradient>
<rect x="410.9" y="519.5" class="st10" width="61.4" height="7.6"/>
<g>
	<g>
		
			<image style="overflow:visible;enable-background:new    ;" width="646" height="637" xlink:href="B789F00C.png"  transform="matrix(0.24 0 0 0.24 395.286 389.8578)">
		</image>
	</g>
</g>
<ellipse id="Suction_Pipe_Opening_00000119113119448681629480000013771623145148783233_" class="st4" cx="585.1" cy="555" rx="3.1" ry="14.9"/>
<g id="Manometer_Scale">
	<g>
		<g>
			
				<image style="overflow:visible;enable-background:new    ;" width="100" height="513" xlink:href="../Venturimeter Exp/C52FA7C0.png"  transform="matrix(0.2887 0 0 0.2887 848.0875 81.2146)">
			</image>
		</g>
	</g>
	<g>
		<line class="st11" x1="849.2" y1="167.4" x2="871.6" y2="167.4"/>
		<line class="st11" x1="849.2" y1="174.1" x2="871.6" y2="174.1"/>
		<line class="st11" x1="849.2" y1="180.8" x2="871.6" y2="180.8"/>
		<line class="st11" x1="849.2" y1="187.5" x2="871.6" y2="187.5"/>
		<line class="st11" x1="849.2" y1="194.2" x2="871.6" y2="194.2"/>
		<line class="st11" x1="849.2" y1="200.9" x2="871.6" y2="200.9"/>
		<line class="st11" x1="849.2" y1="207.6" x2="871.6" y2="207.6"/>
		<line class="st11" x1="849.2" y1="214.3" x2="871.6" y2="214.3"/>
		<line class="st11" x1="849.2" y1="221" x2="871.6" y2="221"/>
		<g>
			<rect x="849.3" y="81.6" class="st11" width="22.3" height="147.4"/>
			<line class="st11" x1="849.2" y1="89.1" x2="871.6" y2="89.1"/>
			<line class="st11" x1="849.2" y1="95.4" x2="871.6" y2="95.4"/>
			<line class="st11" x1="849.2" y1="101.6" x2="871.6" y2="101.6"/>
			<line class="st11" x1="849.2" y1="107.9" x2="871.6" y2="107.9"/>
			<line class="st11" x1="849.2" y1="114.1" x2="871.6" y2="114.1"/>
			<line class="st11" x1="849.2" y1="120.4" x2="871.6" y2="120.4"/>
			<line class="st11" x1="849.2" y1="127.1" x2="871.6" y2="127.1"/>
			<line class="st11" x1="849.2" y1="133.8" x2="871.6" y2="133.8"/>
			<line class="st11" x1="849.2" y1="140.5" x2="871.6" y2="140.5"/>
			<line class="st11" x1="849.2" y1="147.2" x2="871.6" y2="147.2"/>
			<line class="st11" x1="849.2" y1="153.9" x2="871.6" y2="153.9"/>
			<line class="st11" x1="849.2" y1="160.7" x2="871.6" y2="160.7"/>
			<rect x="855.5" y="82.4" class="st4" width="9.8" height="144.8"/>
			<text transform="matrix(1.1057 0 0 1 856.6859 90.5381)" class="st12 st13 st14">100</text>
			<text transform="matrix(1.1057 0 0 1 856.6849 222.834)" class="st12 st13 st14">100</text>
			<text transform="matrix(1.144 0 0 1 858.7269 96.4043)" class="st12 st13 st15">90</text>
			<text transform="matrix(1.0581 0 0 1 858.8841 102.6103)" class="st12 st13 st16">80</text>
			<text transform="matrix(1.0581 0 0 1 858.9144 109.042)" class="st12 st13 st16">70</text>
			<text transform="matrix(1.0581 0 0 1 858.9144 115.1289)" class="st12 st13 st16">60</text>
			<text transform="matrix(1.0581 0 0 1 858.9144 121.7841)" class="st12 st13 st16">50</text>
			<text transform="matrix(1.0581 0 0 1 859.1575 128.8008)" class="st12 st13 st16">40</text>
			<text transform="matrix(1.0581 0 0 1 858.9144 135.0039)" class="st12 st13 st16">30</text>
			<text transform="matrix(1.0581 0 0 1 858.9144 141.5986)" class="st12 st13 st16">20</text>
			<text transform="matrix(1.0581 0 0 1 858.9144 148.3086)" class="st12 st13 st16">10</text>
			<text transform="matrix(1.0581 0 0 1 860.0609 155.3369)" class="st12 st13 st16">0</text>
			<text transform="matrix(1.0581 0 0 1 858.9144 162.083)" class="st12 st13 st16">10</text>
			<text transform="matrix(1.0581 0 0 1 859.0941 168.6465)" class="st12 st13 st16">20</text>
			<text transform="matrix(1.0581 0 0 1 858.9144 188.7636)" class="st12 st13 st16">50</text>
			<text transform="matrix(1.0581 0 0 1 858.7269 195.583)" class="st12 st13 st16">60</text>
			<text transform="matrix(1.0581 0 0 1 858.7269 202.4004)" class="st12 st13 st16">70</text>
			<text transform="matrix(1.0581 0 0 1 858.7269 208.999)" class="st12 st13 st16">80</text>
			<text transform="matrix(1.0581 0 0 1 858.7269 215.705)" class="st12 st13 st16">90</text>
			<text transform="matrix(1.0581 0 0 1 858.9144 181.9609)" class="st12 st13 st16">40</text>
			<text transform="matrix(1.0581 0 0 1 858.9144 175.3711)" class="st12 st13 st16">30</text>
		</g>
	</g>
</g>
<text transform="matrix(0.9985 0 0 1 856.1019 85.667)" class="st12 st13 st17">mm Hg</text>
<path class="st6" d="M672.4,372.3"/>
<g>
	<g>
		
			<image style="overflow:visible;" width="512" height="141" xlink:href="CF8947BA.png"  transform="matrix(9.960938e-02 0 0 9.960938e-02 201.6638 334.4421)">
		</image>
	</g>
</g>
<g>
	<g>
		
			<image style="overflow:visible;" width="512" height="141" xlink:href="CF8947B9.png"  transform="matrix(9.960938e-02 0 0 9.960938e-02 278.5558 265.2212)">
		</image>
	</g>
</g>
<g>
	<g>
		
			<image style="overflow:visible;" width="151" height="512" xlink:href="CF8947B6.png"  transform="matrix(9.960938e-02 0 0 9.960938e-02 319.1968 271.3394)">
		</image>
	</g>
</g>
<g>
	<g>
		
			<image style="overflow:visible;" width="512" height="384" xlink:href="CF8947A9.png"  transform="matrix(7.031250e-02 0 0 7.031250e-02 318.4609 315.2138)">
		</image>
	</g>
</g>
<g>
	<path class="st6" d="M681.3,228.3l3.8,123.4c0.1,3.5-0.1,9.9-3.3,16.9c-2.2,4.9-8.4,8.5-11.2,10.3"/>
	<path class="st18" d="M671.5,380.1c-0.3,0.1-1.6,0.4-2.8,0.2c-0.7-0.1-1.3-0.4-1.4-0.4c-0.3-0.1-0.1,0-0.2-0.1
		c0.6-0.4,2.3-1.9,2.9-2.3C671,378.1,671.5,379.2,671.5,380.1z"/>
</g>
<g id="Fringe_2_00000112622058946311706200000016325904198235335051_">
	<g>
		
			<image style="overflow:visible;enable-background:new    ;" width="328" height="505" xlink:href="../Venturimeter Exp/C52FA757.png"  transform="matrix(-5.787439e-02 0 0 -5.787439e-02 211.0768 356.0779)">
		</image>
	</g>
</g>
<circle id="Suction_Pipe_Corner_00000018918881214553383990000013834874572809548165_" class="st3" cx="256.9" cy="341.8" r="14.1"/>
<circle id="Suction_Pipe_Corner_00000119830325824991851440000007456739858912514440_" class="st19" cx="327.2" cy="322.3" r="8.7"/>
<g>
	<g>
		
			<image style="overflow:visible;" width="291" height="512" xlink:href="CF8947AA.png"  transform="matrix(5.859375e-02 0 0 5.859375e-02 188.1564 326.4645)">
		</image>
	</g>
</g>
<g>
	<g>
		
			<image style="overflow:visible;" width="512" height="94" xlink:href="CF8947AE.png"  transform="matrix(0.1504 0 0 0.1504 119.6891 334.3962)">
		</image>
	</g>
</g>
<g>
	<g>
		<g>
			
				<image style="overflow:visible;enable-background:new    ;" width="505" height="511" xlink:href="B789F066.png"  transform="matrix(8.775821e-18 -0.1433 0.1433 8.775821e-18 53.0281 377.2685)">
			</image>
		</g>
	</g>
	<g>
		<g>
			
				<image style="overflow:visible;enable-background:new    ;" width="510" height="478" xlink:href="B789F079.png"  transform="matrix(1.058494e-17 -0.1729 0.1729 1.058494e-17 47.9544 385.5452)">
			</image>
		</g>
	</g>
	<g>
		<line class="st20" x1="88.9" y1="309.5" x2="88.9" y2="315.9"/>
		<line class="st20" x1="99.4" y1="311.1" x2="97.5" y2="317.2"/>
		<line class="st20" x1="108.7" y1="315.7" x2="104.9" y2="320.9"/>
		<line class="st20" x1="115.9" y1="322.8" x2="110.8" y2="326.7"/>
		<line class="st20" x1="120.7" y1="331.7" x2="114.6" y2="333.8"/>
		<line class="st20" x1="122.4" y1="342.1" x2="115.9" y2="342.1"/>
		<line class="st20" x1="120.7" y1="352.3" x2="114.6" y2="350.2"/>
		<line class="st20" x1="115.9" y1="361.3" x2="110.7" y2="357.4"/>
		<line class="st20" x1="108.7" y1="368.3" x2="104.9" y2="363"/>
		<line class="st20" x1="99.5" y1="372.9" x2="97.5" y2="366.8"/>
		<line class="st20" x1="88.9" y1="374.6" x2="88.9" y2="368"/>
		<line class="st20" x1="78.4" y1="372.9" x2="80.4" y2="366.7"/>
		<line class="st20" x1="69.2" y1="368.4" x2="73" y2="363"/>
		<line class="st20" x1="61.9" y1="361.3" x2="67.1" y2="357.4"/>
		<line class="st20" x1="57.1" y1="352.3" x2="63.4" y2="350.2"/>
		<line class="st20" x1="55.4" y1="342.1" x2="62" y2="342.1"/>
	</g>
	<g>
		<line class="st20" x1="88.9" y1="309.5" x2="88.9" y2="315.9"/>
		<line class="st20" x1="80.1" y1="310.6" x2="81.7" y2="316.8"/>
		<line class="st20" x1="72.1" y1="313.9" x2="75.3" y2="319.5"/>
		<line class="st20" x1="65.3" y1="318.9" x2="69.8" y2="323.6"/>
		<line class="st20" x1="60" y1="325.5" x2="65.6" y2="328.9"/>
		<line class="st20" x1="56.6" y1="333.3" x2="62.9" y2="335.1"/>
		<line class="st20" x1="55.4" y1="342.1" x2="62" y2="342.1"/>
	</g>
	<polygon class="st21" points="87.8,343.1 100,355.3 98.3,357 105.3,358.5 103.7,351.5 101.8,353.4 89.6,341.2 	"/>
	<circle class="st22" cx="88.7" cy="342.1" r="3.4"/>
</g>
<g>
	<g>
		<g>
			
				<image style="overflow:visible;enable-background:new    ;" width="493" height="503" xlink:href="B789F07A.png"  transform="matrix(8.939152e-02 0 0 8.939152e-02 586.4648 250.9772)">
			</image>
		</g>
	</g>
	<g>
		<g>
			
				<image style="overflow:visible;enable-background:new    ;" width="504" height="488" xlink:href="B789F078.png"  transform="matrix(0.1029 0 0 0.1029 582.3323 248.1191)">
			</image>
		</g>
	</g>
	<g>
		<line class="st20" x1="626.9" y1="273.3" x2="623.3" y2="273.3"/>
		<line class="st20" x1="626" y1="279.5" x2="622.5" y2="278.5"/>
		<line class="st20" x1="623.4" y1="285" x2="620.3" y2="282.9"/>
		<line class="st20" x1="619.4" y1="289.3" x2="617.1" y2="286.4"/>
		<line class="st20" x1="614.2" y1="292.2" x2="613" y2="288.7"/>
		<line class="st20" x1="608.3" y1="293.2" x2="608.3" y2="289.5"/>
		<line class="st20" x1="602.3" y1="292.2" x2="603.6" y2="288.7"/>
		<line class="st20" x1="597.1" y1="289.4" x2="599.5" y2="286.4"/>
		<line class="st20" x1="593.1" y1="285" x2="596.2" y2="282.9"/>
		<line class="st20" x1="590.4" y1="279.6" x2="594.1" y2="278.4"/>
		<line class="st20" x1="589.5" y1="273.3" x2="593.3" y2="273.3"/>
		<line class="st20" x1="590.4" y1="267" x2="594.1" y2="268.1"/>
		<line class="st20" x1="593.1" y1="261.5" x2="596.3" y2="263.7"/>
		<line class="st20" x1="597.1" y1="257.2" x2="599.5" y2="260.2"/>
		<line class="st20" x1="602.3" y1="254.3" x2="603.6" y2="258"/>
		<line class="st20" x1="608.3" y1="253.2" x2="608.3" y2="257.2"/>
	</g>
	<g>
		<line class="st20" x1="626.9" y1="273.3" x2="623.3" y2="273.3"/>
		<line class="st20" x1="626.3" y1="268" x2="622.7" y2="268.9"/>
		<line class="st20" x1="624.5" y1="263.3" x2="621.2" y2="265.1"/>
		<line class="st20" x1="621.6" y1="259.2" x2="618.8" y2="261.8"/>
		<line class="st20" x1="617.8" y1="256.1" x2="615.7" y2="259.3"/>
		<line class="st20" x1="613.3" y1="254" x2="612.2" y2="257.7"/>
		<line class="st20" x1="608.3" y1="253.2" x2="608.3" y2="257.2"/>
	</g>
	<polygon class="st21" points="608.5,272.4 601.1,265 602.2,264 597.9,263.1 598.9,267.3 600.1,266.2 607.4,273.5 	"/>
	<circle class="st22" cx="607.9" cy="272.9" r="2.1"/>
</g>
<g>
	<g>
		<g>
			
				<image style="overflow:visible;enable-background:new    ;" width="497" height="503" xlink:href="B789F055.png"  transform="matrix(8.903684e-02 0 0 8.903684e-02 660.6721 251.0664)">
			</image>
		</g>
	</g>
	<g>
		<g>
			
				<image style="overflow:visible;enable-background:new    ;" width="506" height="488" xlink:href="B789F05B.png"  transform="matrix(0.1027 0 0 0.1027 656.5806 248.1705)">
			</image>
		</g>
	</g>
	<g>
		<line class="st20" x1="701.2" y1="273.3" x2="697.6" y2="273.3"/>
		<line class="st20" x1="700.3" y1="279.5" x2="696.8" y2="278.5"/>
		<line class="st20" x1="697.7" y1="285" x2="694.6" y2="282.9"/>
		<line class="st20" x1="693.7" y1="289.3" x2="691.4" y2="286.4"/>
		<line class="st20" x1="688.5" y1="292.2" x2="687.3" y2="288.7"/>
		<line class="st20" x1="682.6" y1="293.2" x2="682.6" y2="289.5"/>
		<line class="st20" x1="676.6" y1="292.2" x2="677.9" y2="288.7"/>
		<line class="st20" x1="671.4" y1="289.4" x2="673.8" y2="286.4"/>
		<line class="st20" x1="667.4" y1="285" x2="670.5" y2="282.9"/>
		<line class="st20" x1="664.7" y1="279.6" x2="668.4" y2="278.4"/>
		<line class="st20" x1="663.8" y1="273.3" x2="667.6" y2="273.3"/>
		<line class="st20" x1="664.7" y1="267" x2="668.4" y2="268.1"/>
		<line class="st20" x1="667.4" y1="261.5" x2="670.6" y2="263.7"/>
		<line class="st20" x1="671.4" y1="257.2" x2="673.8" y2="260.2"/>
		<line class="st20" x1="676.6" y1="254.3" x2="677.9" y2="258"/>
		<line class="st20" x1="682.6" y1="253.2" x2="682.6" y2="257.2"/>
	</g>
	<g>
		<line class="st20" x1="701.2" y1="273.3" x2="697.6" y2="273.3"/>
		<line class="st20" x1="700.6" y1="268" x2="697" y2="268.9"/>
		<line class="st20" x1="698.8" y1="263.3" x2="695.5" y2="265.1"/>
		<line class="st20" x1="695.9" y1="259.2" x2="693.1" y2="261.8"/>
		<line class="st20" x1="692.1" y1="256.1" x2="690" y2="259.3"/>
		<line class="st20" x1="687.6" y1="254" x2="686.5" y2="257.7"/>
		<line class="st20" x1="682.6" y1="253.2" x2="682.6" y2="257.2"/>
	</g>
	<polygon class="st21" points="682.8,272.4 675.4,265 676.5,264 672.2,263.1 673.2,267.3 674.4,266.2 681.7,273.5 	"/>
	<circle class="st22" cx="682.2" cy="272.9" r="2.1"/>
</g>
<g>
	<g>
		
			<image style="overflow:visible;" width="512" height="494" xlink:href="CF894787.png"  transform="matrix(0.1094 0 0 0.1094 241.7373 245.228)">
		</image>
	</g>
</g>
<g id="Tank_Empty_Control_00000047039039413149211970000009395106710595272846_">
	<g>
		<g>
			
				<image style="overflow:visible;enable-background:new    ;" width="412" height="508" xlink:href="../Venturimeter Exp/C52FA7C7.png"  transform="matrix(7.639823e-02 0 0 7.639823e-02 311.453 250.52)">
			</image>
		</g>
	</g>
	<g>
		<g>
			
				<image style="overflow:visible;enable-background:new    ;" width="168" height="503" xlink:href="../Venturimeter Exp/C52FA7CF.png"  transform="matrix(2.950947e-02 0 0 2.950947e-02 324.7121 239.8108)">
			</image>
		</g>
	</g>
	<g>
		<g>
			
				<image style="overflow:visible;enable-background:new    ;" width="503" height="188" xlink:href="../Venturimeter Exp/C52FA7C1.png"  transform="matrix(6.603900e-02 0 0 6.603900e-02 310.5822 235.2461)">
			</image>
		</g>
	</g>
</g>
<g>
	<g>
		
			<image style="overflow:visible;" width="512" height="86" xlink:href="CF8947E2.png"  transform="matrix(0.1406 0 0 0.1406 180.0793 516.6759)">
		</image>
	</g>
</g>
<g>
	<g>
		
			<image style="overflow:visible;" width="512" height="378" xlink:href="CF89479E.png"  transform="matrix(0.1113 0 0 0.1113 230.5733 500.773)">
		</image>
	</g>
</g>
<g>
	<g>
		
			<image style="overflow:visible;" width="177" height="512" xlink:href="CF89479F.png"  transform="matrix(0.1191 0 0 0.1191 171.7482 492.2227)">
		</image>
	</g>
</g>
<g>
	<g>
		
			<image style="overflow:visible;enable-background:new    ;" width="515" height="174" xlink:href="../Venturimeter Exp/C52FA7C4.png"  transform="matrix(0.1296 0 0 0.2014 564.9447 173.3978)">
		</image>
	</g>
</g>
<path class="st23" d="M622.5,205.3h-48.9c-3,0-5.4-3.7-5.4-8.4v-8.9c0-4.6,2.4-8.4,5.4-8.4h48.9c3,0,5.4,3.7,5.4,8.4v8.9
	C627.8,201.6,625.4,205.3,622.5,205.3z"/>
<text transform="matrix(0.9817 0 0 1 574.5361 197.5171)" class="st13 st24">100 kg</text>
<text transform="matrix(1.0397 0 0 1 566.9445 168.6464)" class="st25 st26">Weight 1</text>
<g>
	<g>
		
			<image style="overflow:visible;enable-background:new    ;" width="515" height="174" xlink:href="../Venturimeter Exp/C52FA7C4.png"  transform="matrix(0.1296 0 0 0.2014 686.9225 173.3978)">
		</image>
	</g>
</g>
<path class="st23" d="M744.4,205.3h-48.9c-3,0-5.4-3.7-5.4-8.4v-8.9c0-4.6,2.4-8.4,5.4-8.4h48.9c3,0,5.4,3.7,5.4,8.4v8.9
	C749.8,201.6,747.4,205.3,744.4,205.3z"/>
<text transform="matrix(0.9817 0 0 1 696.514 197.5171)" class="st13 st24">100 kg</text>
<text transform="matrix(1.0397 0 0 1 688.9224 168.6464)" class="st25 st26">Weight 2</text>
<g>
	<g>
		
			<image style="overflow:visible;enable-background:new    ;" width="515" height="174" xlink:href="../Venturimeter Exp/C52FA7C4.png"  transform="matrix(0.1015 0 0 0.1712 423.8518 251.2631)">
		</image>
	</g>
</g>
<path class="st23" d="M468.9,278.4h-38.3c-2.3,0-4.2-3.2-4.2-7.1v-7.5c0-3.9,1.9-7.1,4.2-7.1h38.3c2.3,0,4.2,3.2,4.2,7.1v7.5
	C473.1,275.2,471.2,278.4,468.9,278.4z"/>
<text transform="matrix(0.9817 0 0 1 445.3364 273.1401)" class="st13 st24">0</text>
<text transform="matrix(1.0397 0 0 1 421.5568 222.8336)" class="st27"><tspan x="0" y="0" class="st25 st26">Turbine</tspan><tspan x="9.4" y="18.5" class="st25 st26">RPM</tspan></text>
<text transform="matrix(1.0397 0 0 1 563.099 251.0664)" class="st25 st28">W1</text>
<text transform="matrix(1.0397 0 0 1 709.6522 260.4631)" class="st25 st28">W2</text>
<g>
	<g>
		
			<image style="overflow:visible;enable-background:new    ;" width="515" height="174" xlink:href="../Venturimeter Exp/C52FA7C4.png"  transform="matrix(0.3408 0 0 0.336 47.9544 221.1048)">
		</image>
	</g>
</g>
<path class="st23" d="M199.3,274.4H70.7c-7.8,0-14.2-6.2-14.2-14v-14.8c0-7.7,6.3-14,14.2-14h128.5c7.8,0,14.2,6.2,14.2,14v14.8
	C213.4,268.1,207.1,274.4,199.3,274.4z"/>
<text transform="matrix(0.9229 0 0 1 64.6087 262.1396)" class="st13 st29">100 kg/cm^2</text>
<text transform="matrix(1.0397 0 0 1 71.0602 209.4628)" class="st25 st30">Pressure</text>
<radialGradient id="path12971_00000049930964863853732830000007522044712024801706_" cx="-270.7356" cy="-541.972" r="9.422" gradientTransform="matrix(0.3283 3.244083e-02 4.242862e-02 -0.4294 565.5914 311.5547)" gradientUnits="userSpaceOnUse">
	<stop  offset="0.3309" style="stop-color:#51A9F0;stop-opacity:0.462"/>
	<stop  offset="0.9755" style="stop-color:#51A9F0"/>
</radialGradient>
<path id="path12971" style="opacity:0.67;fill:url(#path12971_00000049930964863853732830000007522044712024801706_);enable-background:new    ;" d="
	M456.9,535.3c-0.2,1.7-1.9,3.5-3.6,3.3c-1.7-0.2-2.9-1.9-2.7-4c0.2-2.6,3.8-5.5,3.8-5.5S457.2,532.6,456.9,535.3z"/>
<radialGradient id="path12971_00000137845592329459615430000007421784906180594054_" cx="-271.667" cy="-567.7468" r="9.422" gradientTransform="matrix(0.3298 9.072594e-03 1.186582e-02 -0.4313 546.8951 304.1356)" gradientUnits="userSpaceOnUse">
	<stop  offset="0.3309" style="stop-color:#51A9F0;stop-opacity:0.462"/>
	<stop  offset="0.9755" style="stop-color:#51A9F0"/>
</radialGradient>
<path id="path12971_00000106107991090282018510000004854857170335248542_" style="opacity:0.67;fill:url(#path12971_00000137845592329459615430000007421784906180594054_);enable-background:new    ;" d="
	M453.8,546.2c-0.1,1.7-1.6,3.6-3.3,3.5c-1.7-0.1-3.1-1.7-3-3.8c0-2.6,3.4-5.8,3.4-5.8S453.9,543.4,453.8,546.2z"/>
<radialGradient id="path12971_00000056404138829998609330000007206180146461375872_" cx="-208.7771" cy="-549.3963" r="9.422" gradientTransform="matrix(0.3299 -5.544094e-03 -7.251027e-03 -0.4314 537.1884 306.8294)" gradientUnits="userSpaceOnUse">
	<stop  offset="0.3309" style="stop-color:#51A9F0;stop-opacity:0.462"/>
	<stop  offset="0.9755" style="stop-color:#51A9F0"/>
</radialGradient>
<path id="path12971_00000140734046150829124200000009325881688673080740_" style="opacity:0.67;fill:url(#path12971_00000056404138829998609330000007206180146461375872_);enable-background:new    ;" d="
	M475.5,544.5c0,1.7-1.5,3.7-3.2,3.7s-3.1-1.6-3.2-3.7c-0.1-2.6,3.2-5.9,3.2-5.9S475.5,541.7,475.5,544.5z"/>
<radialGradient id="path12971_00000112611720758519574630000010829491739194209692_" cx="-138.0412" cy="-573.2687" r="9.422" gradientTransform="matrix(0.3299 -5.544094e-03 -7.251027e-03 -0.4314 537.1884 306.8294)" gradientUnits="userSpaceOnUse">
	<stop  offset="0.3309" style="stop-color:#51A9F0;stop-opacity:0.462"/>
	<stop  offset="0.9755" style="stop-color:#51A9F0"/>
</radialGradient>
<path id="path12971_00000180365384369199760890000003979335281415815852_" style="opacity:0.67;fill:url(#path12971_00000112611720758519574630000010829491739194209692_);enable-background:new    ;" d="
	M499,554.4c0,1.7-1.5,3.7-3.2,3.7s-3.1-1.6-3.2-3.7c-0.1-2.6,3.2-5.9,3.2-5.9S499,551.6,499,554.4z"/>
<radialGradient id="path12971_00000005965146805688120640000009238625907422579098_" cx="-159.1437" cy="-556.3108" r="9.422" gradientTransform="matrix(0.3299 -5.544094e-03 -7.251027e-03 -0.4314 537.1884 306.8294)" gradientUnits="userSpaceOnUse">
	<stop  offset="0.3309" style="stop-color:#51A9F0;stop-opacity:0.462"/>
	<stop  offset="0.9755" style="stop-color:#51A9F0"/>
</radialGradient>
<path id="path12971_00000039121599153711825270000003777279659994967210_" style="opacity:0.67;fill:url(#path12971_00000005965146805688120640000009238625907422579098_);enable-background:new    ;" d="
	M491.9,547.2c0,1.7-1.5,3.7-3.2,3.7s-3.1-1.6-3.2-3.7c-0.1-2.6,3.2-5.9,3.2-5.9S491.9,544.4,491.9,547.2z"/>
<radialGradient id="path12971_00000068652137923521865310000011667227419260398259_" cx="-169.8078" cy="-557.3881" r="9.422" gradientTransform="matrix(0.3295 1.735722e-02 2.270110e-02 -0.4309 550.5511 304.5497)" gradientUnits="userSpaceOnUse">
	<stop  offset="0.3309" style="stop-color:#51A9F0;stop-opacity:0.462"/>
	<stop  offset="0.9755" style="stop-color:#51A9F0"/>
</radialGradient>
<path id="path12971_00000015347552283899296090000004986112322925329575_" style="opacity:0.67;fill:url(#path12971_00000068652137923521865310000011667227419260398259_);enable-background:new    ;" d="
	M485.2,541.5c-0.1,1.7-1.7,3.5-3.4,3.4c-1.7-0.1-3-1.8-2.9-3.9c0.1-2.6,3.6-5.7,3.6-5.7S485.3,538.7,485.2,541.5z"/>
<radialGradient id="path12971_00000083773322099352978780000015349885672081530283_" cx="-148.1777" cy="-560.8658" r="9.422" gradientTransform="matrix(0.3179 -8.825833e-02 -0.1154 -0.4158 475.1217 290.7187)" gradientUnits="userSpaceOnUse">
	<stop  offset="0.3309" style="stop-color:#51A9F0;stop-opacity:0.462"/>
	<stop  offset="0.9755" style="stop-color:#51A9F0"/>
</radialGradient>
<path id="path12971_00000001662099401396575960000010440468052689551771_" style="opacity:0.67;fill:url(#path12971_00000083773322099352978780000015349885672081530283_);enable-background:new    ;" d="
	M495.7,535.7c0.4,1.7-0.5,3.9-2.2,4.3c-1.7,0.4-3.4-0.7-4-2.7c-0.7-2.5,1.6-6.5,1.6-6.5S495,533,495.7,535.7z"/>
<radialGradient id="path12971_00000008841795799792957880000009201877278124032939_" cx="-234.763" cy="-575.1016" r="9.422" gradientTransform="matrix(0.3288 2.761459e-02 3.611648e-02 -0.43 559.2921 309.3247)" gradientUnits="userSpaceOnUse">
	<stop  offset="0.3309" style="stop-color:#51A9F0;stop-opacity:0.462"/>
	<stop  offset="0.9755" style="stop-color:#51A9F0"/>
</radialGradient>
<path id="path12971_00000153664772651406477070000008304469226043984575_" style="opacity:0.67;fill:url(#path12971_00000008841795799792957880000009201877278124032939_);enable-background:new    ;" d="
	M464.6,549.9c-0.2,1.7-1.8,3.5-3.5,3.3c-1.7-0.2-3-1.9-2.8-4c0.2-2.6,3.8-5.6,3.8-5.6S464.8,547.1,464.6,549.9z"/>
<radialGradient id="path12971_00000127742008276461291660000004550552355556295311_" cx="-259.1309" cy="-595.9944" r="9.422" gradientTransform="matrix(0.3298 1.056490e-02 1.381758e-02 -0.4313 548.34 302.0047)" gradientUnits="userSpaceOnUse">
	<stop  offset="0.3309" style="stop-color:#51A9F0;stop-opacity:0.462"/>
	<stop  offset="0.9755" style="stop-color:#51A9F0"/>
</radialGradient>
<path id="path12971_00000096767311534407205290000009342126560049524374_" style="opacity:0.67;fill:url(#path12971_00000127742008276461291660000004550552355556295311_);enable-background:new    ;" d="
	M457.9,555.9c-0.1,1.7-1.6,3.6-3.4,3.5c-1.7-0.1-3.1-1.7-3-3.8c0.1-2.6,3.5-5.7,3.5-5.7S458,553.1,457.9,555.9z"/>
<radialGradient id="path12971_00000012464409088976582280000010406903530624043175_" cx="-190.8286" cy="-574.2368" r="9.422" gradientTransform="matrix(0.3171 -9.125378e-02 -0.1193 -0.4147 473.0752 299.2883)" gradientUnits="userSpaceOnUse">
	<stop  offset="0.3309" style="stop-color:#51A9F0;stop-opacity:0.462"/>
	<stop  offset="0.9755" style="stop-color:#51A9F0"/>
</radialGradient>
<path id="path12971_00000091734986713624969300000007420253347823183267_" style="opacity:0.67;fill:url(#path12971_00000012464409088976582280000010406903530624043175_);enable-background:new    ;" d="
	M484,553.5c0.4,1.7-0.5,3.9-2.1,4.4c-1.7,0.4-3.4-0.7-4-2.7c-0.7-2.5,1.5-6.5,1.5-6.5S483.3,550.8,484,553.5z"/>
<radialGradient id="path12971_00000176738943595561683590000016341504979543550111_" cx="-202.8884" cy="-571.6761" r="9.422" gradientTransform="matrix(0.3219 7.227602e-02 9.452819e-02 -0.421 587.9987 330.8618)" gradientUnits="userSpaceOnUse">
	<stop  offset="0.3309" style="stop-color:#51A9F0;stop-opacity:0.462"/>
	<stop  offset="0.9755" style="stop-color:#51A9F0"/>
</radialGradient>
<path id="path12971_00000027593021241563998310000014684149366230359685_" style="opacity:0.67;fill:url(#path12971_00000176738943595561683590000016341504979543550111_);enable-background:new    ;" d="
	M471.9,557.1c-0.4,1.7-2.3,3.2-3.9,2.8c-1.7-0.4-2.7-2.3-2.2-4.3c0.5-2.5,4.5-5,4.5-5S472.5,554.4,471.9,557.1z"/>
<polygon class="st8" points="557.5,573.5 357.3,574.1 389.5,563.3 557.5,564.5 "/>
<g class="st42">
	<g>
		
			<image style="overflow:visible;enable-background:new    ;" width="940" height="1213" xlink:href="B789F006.png"  transform="matrix(0.2402 0 0 0.2402 344.0543 296.2654)">
		</image>
	</g>
</g>
</svg>
