<?xml version="1.0" encoding="utf-8"?>
<!-- Generator: Adobe Illustrator 27.3.1, SVG Export Plug-In . SVG Version: 6.00 Build 0)  -->
<svg version="1.1" id="Layer_1" xmlns="http://www.w3.org/2000/svg" xmlns:xlink="http://www.w3.org/1999/xlink" x="0px" y="0px"
	 viewBox="0 0 1380.4 964.2" style="enable-background:new 0 0 1380.4 964.2;" xml:space="preserve">
<style type="text/css">
	.st0{fill:#1A2D58;}
	.st1{fill:#D1D3D4;}
	.st2{fill:#808285;}
	.st3{fill:#EDED90;stroke:#EFF0A3;stroke-width:3;stroke-miterlimit:10;}
	.st4{fill:#B3D0ED;}
	.st5{opacity:0.88;}
	.st6{opacity:0.92;enable-background:new    ;}
	.st7{opacity:0.38;}
	.st8{fill:none;stroke:#271D5D;stroke-width:0.75;stroke-miterlimit:10;}
	.st9{fill:#FFFFFF;}
	.st10{fill:#010101;}
	.st11{font-family:'ArialMT';}
	.st12{font-size:4.6962px;}
	.st13{font-size:4.1972px;}
	.st14{font-size:4.1969px;}
	.st15{font-size:3.696px;}
</style>
<g>
	<g>

			<image style="overflow:visible;enable-background:new    ;" width="54" height="511" xlink:href="../Venturimeter Exp/C52FA6DB.png"  transform="matrix(0.6017 0 0 0.8718 966.2067 122.9002)">
		</image>
	</g>
</g>
<g>
	<g>

			<image style="overflow:visible;enable-background:new    ;" width="54" height="511" xlink:href="../Venturimeter Exp/C52FA6DB.png"  transform="matrix(0.6017 0 0 8.447547e-02 966.2067 772.7421)">
		</image>
	</g>
</g>
<g>
	<g>
		<g>

				<image style="overflow:visible;" width="177" height="512" xlink:href="224C19E6.png"  transform="matrix(0.1805 0 0 0.1805 1011.0042 621.8085)">
			</image>
		</g>
	</g>
	<g>
		<g>

				<image style="overflow:visible;" width="1038" height="712" xlink:href="224C19E9.png"  transform="matrix(0.24 0 0 0.24 1039.9968 582.5684)">
			</image>
		</g>
	</g>
	<g>
		<g>

				<image style="overflow:visible;" width="512" height="136" xlink:href="224C19EA.png"  transform="matrix(0.1097 0 0 0.1097 1187.3475 632.851)">
			</image>
		</g>
	</g>
	<g>
		<g>

				<image style="overflow:visible;" width="512" height="136" xlink:href="224C19EB.png"  transform="matrix(0.1097 0 0 0.1097 1187.3475 659.9003)">
			</image>
		</g>
	</g>
	<g>
		<g>

				<image style="overflow:visible;" width="512" height="136" xlink:href="224C19EE.png"  transform="matrix(0.1097 0 0 0.1097 1187.3475 686.9497)">
			</image>
		</g>
	</g>
	<g>
		<g>

				<image style="overflow:visible;" width="512" height="136" xlink:href="224C19E8.png"  transform="matrix(0.1097 0 0 0.1097 1187.3475 713.9991)">
			</image>
		</g>
	</g>
	<g>
		<g>

				<image style="overflow:visible;" width="512" height="137" xlink:href="224C19F6.png"  transform="matrix(0.1092 0 0 0.1092 1187.4675 605.7788)">
			</image>
		</g>
	</g>
	<g>
		<g>

				<image style="overflow:visible;" width="759" height="59" xlink:href="F4FFBD4D.png"  transform="matrix(0.24 0 0 0.24 1073.4768 808.626)">
			</image>
		</g>
	</g>
	<path class="st0" d="M1255.5,808.8h-181.9c9.1-0.7,43.7-4.6,61.9-39.3c2.3-4.4,4.6-9.7,6.4-16.1c15.4,0,30.9,0,46.3,0
		c1.4,5.7,3.2,10.5,5.2,14.6C1210.1,804,1246.9,808.1,1255.5,808.8z"/>
	<g>
		<g>

				<image style="overflow:visible;" width="512" height="459" xlink:href="F4FFBD4A.png"  transform="matrix(5.812500e-02 0 0 5.812500e-02 967.5715 569.2083)">
			</image>
		</g>
	</g>
	<g>
		<g>

				<image style="overflow:visible;" width="512" height="207" xlink:href="F4FFBD46.png"  transform="matrix(0.1233 0 0 0.1233 950.8914 544.6843)">
			</image>
		</g>
	</g>
	<g>
		<g>

				<image style="overflow:visible;" width="512" height="459" xlink:href="F4FFBD59.png"  transform="matrix(5.812500e-02 0 0 5.812500e-02 967.5715 736.7385)">
			</image>
		</g>
	</g>
	<g>
		<g>

				<image style="overflow:visible;" width="512" height="207" xlink:href="F4FFBD5A.png"  transform="matrix(0.1233 0 0 0.1233 950.8914 762.0745)">
			</image>
		</g>
	</g>
	<rect x="963.9" y="593.6" class="st1" width="37.2" height="147.5"/>
	<polygon class="st0" points="952.1,714.1 938.2,706.4 938.2,629.6 952.1,621.9 	"/>
	<path class="st2" d="M1001.6,741.1h-0.5V593.6h0.5c6.5,0,11.8,5.3,11.8,11.8v123.8C1013.4,735.8,1008.1,741.1,1001.6,741.1z"/>
	<path class="st2" d="M963.9,741.1h-0.5c-6.5,0-11.8-5.3-11.8-11.8V605.5c0-6.5,5.3-11.8,11.8-11.8h0.5V741.1z"/>
</g>
<g>
	<g>

			<image style="overflow:visible;" width="2991" height="1098" xlink:href="F4FFBD58.png"  transform="matrix(0.24 0 0 0.24 123.0122 641.7178)">
		</image>
	</g>
</g>
<g>
	<g>

			<image style="overflow:visible;" width="1018" height="1267" xlink:href="F4FFBD5D.png"  transform="matrix(0.24 0 0 0.24 310.3674 359.1638)">
		</image>
	</g>
</g>
<g>
	<g>

			<image style="overflow:visible;enable-background:new    ;" width="54" height="511" xlink:href="../Venturimeter Exp/C52FA6DB.png"  transform="matrix(1.044526e-07 0.6017 -0.2948 1.813282e-07 974.5553 801.6755)">
		</image>
	</g>
</g>
<circle id="Suction_Pipe_Corner" class="st3" cx="979.8" cy="814.8" r="18.2"/>
<ellipse id="Suction_Pipe_Opening" class="st4" cx="826.7" cy="817.7" rx="3.3" ry="16.1"/>
<g id="Tank_Empty_Control_00000000920067168395717810000001351023711700812424_">
	<g>
		<g>

				<image style="overflow:visible;enable-background:new    ;" width="412" height="508" xlink:href="../Venturimeter Exp/C52FA7C7.png"  transform="matrix(-2.028661e-09 0.1034 -0.1034 -2.028661e-09 1008.0699 332.9608)">
			</image>
		</g>
	</g>
	<g>
		<g>

				<image style="overflow:visible;enable-background:new    ;" width="168" height="503" xlink:href="../Venturimeter Exp/C52FA7CF.png"  transform="matrix(-7.835874e-10 3.994774e-02 -3.994774e-02 -7.835874e-10 1022.5673 350.9101)">
			</image>
		</g>
	</g>
	<g>
		<g>

				<image style="overflow:visible;enable-background:new    ;" width="503" height="188" xlink:href="../Venturimeter Exp/C52FA7C1.png"  transform="matrix(-1.753584e-09 8.939873e-02 -8.939873e-02 -1.753584e-09 1028.7466 331.782)">
			</image>
		</g>
	</g>
</g>
<g class="st5">
	<g>

			<image style="overflow:visible;enable-background:new    ;" width="258" height="511" xlink:href="../Venturimeter Exp/C52FA6DA.png"  transform="matrix(0.3932 0 0 0.3932 722.0849 123.1765)">
		</image>
	</g>
</g>
<g>
	<g>

			<image style="overflow:visible;enable-background:new    ;" width="510" height="232" xlink:href="../Venturimeter Exp/C52FA6DE.png"  transform="matrix(6.597827e-02 0 0 6.806483e-02 715.1686 114.8882)">
		</image>
	</g>
</g>
<g>
	<g>

			<image style="overflow:visible;enable-background:new    ;" width="510" height="154" xlink:href="../Venturimeter Exp/C52FA743.png"  transform="matrix(0.205 0 0 0.205 615.4102 107.1127)">
		</image>
	</g>
</g>
<g>
	<g>

			<image style="overflow:visible;enable-background:new    ;" width="510" height="154" xlink:href="../Venturimeter Exp/C52FA743.png"  transform="matrix(0.3009 0 0 0.205 206.4503 581.3301)">
		</image>
	</g>
</g>
<g>
	<g>

			<image style="overflow:visible;enable-background:new    ;" width="513" height="179" xlink:href="../Venturimeter Exp/C52FA74B.png"  transform="matrix(0.1754 0 0 0.1754 745.7218 107.2027)">
		</image>
	</g>
</g>
<image style="overflow:visible;enable-background:new    ;" width="54" height="511" xlink:href="../Venturimeter Exp/C52FA6DB.png"  transform="matrix(9.576453e-08 0.6017 -0.2972 1.993997e-07 978.7132 107.9806)">
</image>
<image style="overflow:visible;enable-background:new    ;" width="54" height="511" xlink:href="../Venturimeter Exp/C52FA6DB.png"  transform="matrix(2.628122e-07 0.6017 -0.8156 1.993997e-07 624.3112 107.8348)">
</image>
<image style="overflow:visible;enable-background:new    ;" width="54" height="511" xlink:href="../Venturimeter Exp/C52FA6DB.png"  transform="matrix(0.6017 0 0 0.8927 188.2499 126.372)">
</image>
<g id="Fringe_4">
	<g>

			<image style="overflow:visible;enable-background:new    ;" width="326" height="505" xlink:href="../Venturimeter Exp/C52FA755.png"  transform="matrix(9.316497e-02 0 0 9.316497e-02 796.4719 99.376)">
		</image>
	</g>
</g>
<g id="Fringe_3">
	<g>

			<image style="overflow:visible;enable-background:new    ;" width="324" height="505" xlink:href="../Venturimeter Exp/C52FA756.png"  transform="matrix(9.333303e-02 0 0 9.333303e-02 609.1907 99.3336)">
		</image>
	</g>
</g>
<g>

		<image style="overflow:visible;enable-background:new    ;" width="321" height="505" xlink:href="../Venturimeter Exp/C52FA758.png"  transform="matrix(9.358487e-02 0 0 9.358487e-02 618.4789 99.27)">
	</image>
</g>
<g id="Fringe_2">
	<g>

			<image style="overflow:visible;enable-background:new    ;" width="328" height="505" xlink:href="../Venturimeter Exp/C52FA757.png"  transform="matrix(9.299679e-02 0 0 9.299679e-02 806.0875 99.4185)">
		</image>
	</g>
</g>
<g>
	<g>

			<image style="overflow:visible;enable-background:new    ;" width="212" height="510" xlink:href="../Venturimeter Exp/C52FA74F.png"  transform="matrix(0.1478 0 0 0.1478 630.1585 636.0697)">
		</image>
	</g>
</g>
<rect x="123.2" y="679.4" class="st4" width="691.1" height="226.5"/>
<circle id="Suction_Pipe_Corner_00000035518070580283282220000008639339393854298022_" class="st3" cx="978.7" cy="128.1" r="18.2"/>
<circle id="Suction_Pipe_Corner_00000151541533302828393850000016809585362759940276_" class="st3" cx="206.5" cy="127.1" r="18.2"/>

<g>
	<g>

			<image style="overflow:visible;enable-background:new    ;" width="509" height="153" xlink:href="../Venturimeter Exp/C70F2020.png"  transform="matrix(0.2055 0 0 0.2055 540.6985 620.3785)">
		</image>
	</g>
</g>
<circle id="Tank_Empty_Corner" class="st3" cx="641.9" cy="640.2" r="18.2"/>
<g class="st6">
	<g>

			<image style="overflow:visible;" width="1043" height="1299" xlink:href="F4FFBDB0.png"  transform="matrix(0.24 0 0 0.24 304.856 358.6109)">
		</image>
	</g>
</g>
<g class="st7">
	<g>

			<image style="overflow:visible;" width="1018" height="1267" xlink:href="F4FFBDB3.png"  transform="matrix(0.24 0 0 0.24 305.5101 366.0475)">
		</image>
	</g>
</g>
<g>
	<g>

			<image style="overflow:visible;" width="675" height="664" xlink:href="F4FFBDBF.png"  transform="matrix(0.24 0 0 0.24 344.4397 463.4428)">
		</image>
	</g>
</g>
<g id="Tank_Empty_Control_00000047039039413149211970000009395106710595272846_">
	<g>
		<g>

				<image style="overflow:visible;enable-background:new    ;" width="412" height="508" xlink:href="../Venturimeter Exp/C52FA7C7.png"  transform="matrix(4.057321e-09 -0.1034 0.1034 4.057321e-09 180.7222 615.7782)">
			</image>
		</g>
	</g>
	<g>
		<g>

				<image style="overflow:visible;enable-background:new    ;" width="168" height="503" xlink:href="../Venturimeter Exp/C52FA7CF.png"  transform="matrix(1.567175e-09 -3.994774e-02 3.994774e-02 1.567175e-09 166.2249 597.8289)">
			</image>
		</g>
	</g>
	<g>
		<g>

				<image style="overflow:visible;enable-background:new    ;" width="503" height="188" xlink:href="../Venturimeter Exp/C52FA7C1.png"  transform="matrix(3.507168e-09 -8.939873e-02 8.939873e-02 3.507168e-09 160.0455 616.957)">
			</image>
		</g>
	</g>
</g>
<g id="Manometer_Scale">
	<g>
		<g>

				<image style="overflow:visible;enable-background:new    ;" width="100" height="513" xlink:href="../Venturimeter Exp/C52FA7C0.png"  transform="matrix(0.302 0 0 0.302 757.7076 140.3246)">
			</image>
		</g>
	</g>
	<g>
		<line class="st8" x1="758.9" y1="230.5" x2="782.4" y2="230.5"/>
		<line class="st8" x1="758.9" y1="237.5" x2="782.4" y2="237.5"/>
		<line class="st8" x1="758.9" y1="244.5" x2="782.4" y2="244.5"/>
		<line class="st8" x1="758.9" y1="251.5" x2="782.4" y2="251.5"/>
		<line class="st8" x1="758.9" y1="258.5" x2="782.4" y2="258.5"/>
		<line class="st8" x1="758.9" y1="265.5" x2="782.4" y2="265.5"/>
		<line class="st8" x1="758.9" y1="272.5" x2="782.4" y2="272.5"/>
		<line class="st8" x1="758.9" y1="279.5" x2="782.4" y2="279.5"/>
		<line class="st8" x1="758.9" y1="286.6" x2="782.4" y2="286.6"/>
		<g>
			<rect x="759" y="140.7" class="st8" width="23.3" height="154.2"/>
			<line class="st8" x1="758.9" y1="148.6" x2="782.4" y2="148.6"/>
			<line class="st8" x1="758.9" y1="155.2" x2="782.4" y2="155.2"/>
			<line class="st8" x1="758.9" y1="161.7" x2="782.4" y2="161.7"/>
			<line class="st8" x1="758.9" y1="168.2" x2="782.4" y2="168.2"/>
			<line class="st8" x1="758.9" y1="174.7" x2="782.4" y2="174.7"/>
			<line class="st8" x1="758.9" y1="181.3" x2="782.4" y2="181.3"/>
			<line class="st8" x1="758.9" y1="188.3" x2="782.4" y2="188.3"/>
			<line class="st8" x1="758.9" y1="195.3" x2="782.4" y2="195.3"/>
			<line class="st8" x1="758.9" y1="202.3" x2="782.4" y2="202.3"/>
			<line class="st8" x1="758.9" y1="209.4" x2="782.4" y2="209.4"/>
			<line class="st8" x1="758.9" y1="216.4" x2="782.4" y2="216.4"/>
			<line class="st8" x1="758.9" y1="223.5" x2="782.4" y2="223.5"/>
			<rect x="765.5" y="141.6" class="st9" width="10.3" height="151.5"/>
			<text transform="matrix(1.1057 0 0 1 766.7023 150.0773)" class="st10 st11 st12">100</text>
			<text transform="matrix(1.1057 0 0 1 766.7013 288.4586)" class="st10 st11 st12">100</text>
			<text transform="matrix(1.144 0 0 1 768.837 156.213)" class="st10 st11 st13">90</text>
			<text transform="matrix(1.0581 0 0 1 769.0001 162.7043)" class="st10 st11 st14">80</text>
			<text transform="matrix(1.0581 0 0 1 769.0314 169.4318)" class="st10 st11 st14">70</text>
			<text transform="matrix(1.0581 0 0 1 769.0314 175.799)" class="st10 st11 st14">60</text>
			<text transform="matrix(1.0581 0 0 1 769.0314 182.7599)" class="st10 st11 st14">50</text>
			<text transform="matrix(1.0581 0 0 1 769.2863 190.1003)" class="st10 st11 st14">40</text>
			<text transform="matrix(1.0581 0 0 1 769.0314 196.5885)" class="st10 st11 st14">30</text>
			<text transform="matrix(1.0581 0 0 1 769.0314 203.487)" class="st10 st11 st14">20</text>
			<text transform="matrix(1.0581 0 0 1 769.0314 210.5055)" class="st10 st11 st14">10</text>
			<text transform="matrix(1.0581 0 0 1 770.2306 217.8571)" class="st10 st11 st14">0</text>
			<text transform="matrix(1.0581 0 0 1 769.0314 224.9137)" class="st10 st11 st14">10</text>
			<text transform="matrix(1.0581 0 0 1 769.2198 231.779)" class="st10 st11 st14">20</text>
			<text transform="matrix(1.0581 0 0 1 769.0314 252.821)" class="st10 st11 st14">50</text>
			<text transform="matrix(1.0581 0 0 1 768.8361 259.9547)" class="st10 st11 st14">60</text>
			<text transform="matrix(1.0581 0 0 1 768.8361 267.0856)" class="st10 st11 st14">70</text>
			<text transform="matrix(1.0581 0 0 1 768.8361 273.9879)" class="st10 st11 st14">80</text>
			<text transform="matrix(1.0581 0 0 1 768.8361 281.0016)" class="st10 st11 st14">90</text>
			<text transform="matrix(1.0581 0 0 1 769.0314 245.7057)" class="st10 st11 st14">40</text>
			<text transform="matrix(1.0581 0 0 1 769.0314 238.8131)" class="st10 st11 st14">30</text>
		</g>
	</g>
</g>
<text transform="matrix(0.9985 0 0 1 765.045 144.9816)" class="st10 st11 st15">mm Hg</text>
<g>
</g>
</svg>
